<?xml version="1.0" encoding="UTF-8"?>
<svg id="Capa_2" data-name="Capa 2" xmlns="http://www.w3.org/2000/svg" viewBox="0 0 463.92 117.54">
  <defs>
    <style>
      .cls-1 {
        fill: #fff;
      }
    </style>
  </defs>
  <g id="Capa_1-2" data-name="Capa 1">
    <g>
      <path class="cls-1" d="M12.27,44.4V0h24.66v9.96h-13.8v6.9h13.38v9.96h-13.38v7.62h13.8v9.96H12.27Z"/>
      <path class="cls-1" d="M57.69,20.46c-.06-1.92-1.44-2.52-3.06-2.52s-2.88.96-2.88,2.22c0,1.8,1.62,2.7,6.24,3.9,7.92,2.1,10.5,5.28,10.5,10.14,0,6.96-6,11.34-13.56,11.34s-12.84-4.26-13.56-11.04h9.9c.3,2.1,1.8,3.06,3.78,3.06,1.74,0,3.48-1.02,3.48-2.58,0-1.86-1.14-2.82-6.12-4.38-8.4-2.58-10.62-5.88-10.62-9.78,0-6.6,6.18-10.86,12.9-10.86,7.2,0,12.3,3.96,12.78,10.5h-9.78Z"/>
      <path class="cls-1" d="M96.99,23.94c-1.44-3.12-4.02-4.68-7.44-4.68-4.56,0-7.68,3.78-7.68,8.46s3.3,8.46,7.92,8.46c3.36,0,5.7-1.56,7.2-4.44h10.14c-1.98,8.34-9.12,13.74-17.64,13.74-9.84,0-17.64-7.98-17.64-17.82s7.86-17.7,17.46-17.7c8.76,0,15.9,5.52,17.76,13.98h-10.08Z"/>
      <path class="cls-1" d="M137.61,44.4v-3.6h-.12c-1.44,2.94-5.4,4.74-9.78,4.74-9.84,0-16.68-7.74-16.68-17.82s7.14-17.76,16.68-17.76c4.08,0,7.86,1.62,9.78,4.68h.12v-3.54h9.96v33.3h-9.96ZM137.61,27.72c0-4.68-3.78-8.46-8.46-8.46s-8.16,3.78-8.16,8.58,3.66,8.4,8.28,8.4,8.34-3.72,8.34-8.52Z"/>
      <path class="cls-1" d="M175.71,44.4v-18.48c0-4.5-1.56-6.6-5.22-6.6-4.02,0-5.7,2.22-5.7,6.72v18.36h-9.96V11.1h9.3v3.54h.12c2.1-3.42,5.04-4.68,9.06-4.68,6,0,12.36,3.36,12.36,13.2v21.24h-9.96Z"/>
      <path class="cls-1" d="M200.79,30.78c.54,3.78,3.72,6.3,7.8,6.3,2.7,0,4.44-1.02,6.06-3.12h10.2c-3.18,7.26-9.24,11.52-16.26,11.52-9.6,0-17.64-7.74-17.64-17.64s7.68-17.88,17.46-17.88,17.58,7.86,17.58,18.18c0,.96-.06,1.74-.24,2.64h-24.96ZM216.03,24.06c-.78-3.42-3.78-5.7-7.62-5.7-3.6,0-6.72,2.16-7.5,5.7h15.12Z"/>
      <path class="cls-1" d="M256.53,44.4v-3.6h-.12c-1.44,2.94-5.4,4.74-9.78,4.74-9.84,0-16.68-7.74-16.68-17.82s7.14-17.76,16.68-17.76c4.08,0,7.86,1.62,9.78,4.68h.12v-3.54h9.96v33.3h-9.96ZM256.53,27.72c0-4.68-3.78-8.46-8.46-8.46s-8.16,3.78-8.16,8.58,3.66,8.4,8.28,8.4,8.34-3.72,8.34-8.52Z"/>
      <path class="cls-1" d="M292.29,55.5V11.1h9.36v3.66h.18c2.64-3.3,6.3-4.8,10.44-4.8,9.48,0,16.2,7.74,16.2,18.12,0,9.48-6.66,17.46-16.2,17.46-3.9,0-7.32-1.2-10.02-4.14v14.1h-9.96ZM318.51,27.78c0-4.68-3.6-8.52-8.4-8.52s-8.28,3.72-8.28,8.52,3.6,8.46,8.34,8.46,8.34-3.84,8.34-8.46Z"/>
      <path class="cls-1" d="M359.13,44.4v-3.6h-.12c-1.44,2.94-5.4,4.74-9.78,4.74-9.84,0-16.68-7.74-16.68-17.82s7.14-17.76,16.68-17.76c4.08,0,7.86,1.62,9.78,4.68h.12v-3.54h9.96v33.3h-9.96ZM359.13,27.72c0-4.68-3.78-8.46-8.46-8.46s-8.16,3.78-8.16,8.58,3.66,8.4,8.28,8.4,8.34-3.72,8.34-8.52Z"/>
      <path class="cls-1" d="M376.29,44.4V11.1h9.36v3.54h.12c1.74-3.54,4.5-4.68,8.34-4.68v10.02c-5.94.06-7.86,2.28-7.86,6.06v18.36h-9.96Z"/>
      <path class="cls-1" d="M422.67,44.4v-3.6h-.12c-1.44,2.94-5.4,4.74-9.78,4.74-9.84,0-16.68-7.74-16.68-17.82s7.14-17.76,16.68-17.76c4.08,0,7.86,1.62,9.78,4.68h.12v-3.54h9.96v33.3h-9.96ZM422.67,27.72c0-4.68-3.78-8.46-8.46-8.46s-8.16,3.78-8.16,8.58,3.66,8.4,8.28,8.4,8.34-3.72,8.34-8.52Z"/>
      <path class="cls-1" d="M17.94,117.42c-10.14,0-17.94-7.5-17.94-17.7s7.98-17.7,17.94-17.7,17.94,7.5,17.94,17.58-7.92,17.82-17.94,17.82ZM25.92,99.72c0-4.44-3.36-8.4-8.04-8.4-4.38,0-7.92,3.84-7.92,8.4s3.48,8.4,7.98,8.4,7.98-3.96,7.98-8.4Z"/>
      <path class="cls-1" d="M40.92,116.4v-44.4h9.96v13.74c2.64-2.82,6-3.78,9.48-3.78,8.64,0,16.56,6.48,16.56,17.58,0,10.26-6.54,18-16.8,18-4.02,0-8.04-1.86-9.54-4.68h-.12v3.54h-9.54ZM66.96,99.72c0-4.44-3.42-8.46-8.22-8.46s-8.22,3.78-8.22,8.4c0,4.92,3.48,8.58,8.1,8.58s8.34-3.72,8.34-8.52Z"/>
      <path class="cls-1" d="M83.58,116.4v-25.74h-4.92v-7.56h4.92v-11.1h9.96v11.1h4.8v7.56h-4.8v25.74h-9.96Z"/>
      <path class="cls-1" d="M109.8,102.78c.54,3.78,3.72,6.3,7.8,6.3,2.7,0,4.44-1.02,6.06-3.12h10.2c-3.18,7.26-9.24,11.52-16.26,11.52-9.6,0-17.64-7.74-17.64-17.64s7.68-17.88,17.46-17.88,17.58,7.86,17.58,18.18c0,.96-.06,1.74-.24,2.64h-24.96ZM125.04,96.06c-.78-3.42-3.78-5.7-7.62-5.7-3.6,0-6.72,2.16-7.5,5.7h15.12Z"/>
      <path class="cls-1" d="M161.4,116.4v-18.48c0-4.5-1.56-6.6-5.22-6.6-4.02,0-5.7,2.22-5.7,6.72v18.36h-9.96v-33.3h9.3v3.54h.12c2.1-3.42,5.04-4.68,9.06-4.68,6,0,12.36,3.36,12.36,13.2v21.24h-9.96Z"/>
      <path class="cls-1" d="M186.48,102.78c.54,3.78,3.72,6.3,7.8,6.3,2.7,0,4.44-1.02,6.06-3.12h10.2c-3.18,7.26-9.24,11.52-16.26,11.52-9.6,0-17.64-7.74-17.64-17.64s7.68-17.88,17.46-17.88,17.58,7.86,17.58,18.18c0,.96-.06,1.74-.24,2.64h-24.96ZM201.72,96.06c-.78-3.42-3.78-5.7-7.62-5.7-3.6,0-6.72,2.16-7.5,5.7h15.12Z"/>
      <path class="cls-1" d="M217.14,116.4v-33.3h9.36v3.54h.12c1.74-3.54,4.5-4.68,8.34-4.68v10.02c-5.94.06-7.86,2.28-7.86,6.06v18.36h-9.96Z"/>
      <path class="cls-1" d="M259.5,116.4v-25.74h-4.92v-7.56h4.92v-11.1h9.96v11.1h4.8v7.56h-4.8v25.74h-9.96Z"/>
      <path class="cls-1" d="M300,116.4v-3.54h-.12c-1.44,3.06-4.08,4.62-8.58,4.62-7.02,0-12.84-4.2-12.84-13.68v-20.7h9.96v18.66c0,4.38,1.56,6.42,5.34,6.42s5.7-2.52,5.7-6.6v-18.48h9.96v33.3h-9.42Z"/>
      <path class="cls-1" d="M335.52,116.4v-25.74h-3.72v-7.56h3.72v-1.38c0-5.52,2.16-10.56,12.78-10.56h1.38v7.5h-.36c-2.58,0-3.84.66-3.84,3.42v1.02h4.2v7.56h-4.2v25.74h-9.96Z"/>
      <path class="cls-1" d="M370.08,117.42c-10.14,0-17.94-7.5-17.94-17.7s7.98-17.7,17.94-17.7,17.94,7.5,17.94,17.58-7.92,17.82-17.94,17.82ZM378.06,99.72c0-4.44-3.36-8.4-8.04-8.4-4.38,0-7.92,3.84-7.92,8.4s3.48,8.4,7.98,8.4,7.98-3.96,7.98-8.4Z"/>
      <path class="cls-1" d="M394.74,116.4v-25.74h-4.92v-7.56h4.92v-11.1h9.96v11.1h4.8v7.56h-4.8v25.74h-9.96Z"/>
      <path class="cls-1" d="M429.3,117.42c-10.14,0-17.94-7.5-17.94-17.7s7.98-17.7,17.94-17.7,17.94,7.5,17.94,17.58-7.92,17.82-17.94,17.82ZM437.28,99.72c0-4.44-3.36-8.4-8.04-8.4-4.38,0-7.92,3.84-7.92,8.4s3.48,8.4,7.98,8.4,7.98-3.96,7.98-8.4Z"/>
      <path class="cls-1" d="M453.54,116.4v-10.2h10.38v10.2h-10.38Z"/>
    </g>
  </g>
</svg>