<?xml version="1.0" encoding="UTF-8"?>
<svg id="Capa_2" data-name="Capa 2" xmlns="http://www.w3.org/2000/svg" viewBox="0 0 3120.2 187.23">
  <defs>
    <style>
      .cls-1 {
        fill: #fff;
      }
    </style>
  </defs>
  <g id="Capa_1-2" data-name="Capa 1">
    <g>
      <path class="cls-1" d="M46.56,108v-33.64h3.17c21.21,0,27.3-6.09,27.3-18.04,0-9.51-4.88-15.85-12.92-15.85-8.78,0-13.65,4.88-13.9,15.6H4.88C4.88,22.43,30.72,0,66.55,0c31.21,0,56.56,19.75,56.56,49.25,0,17.8-8.53,29.74-23.89,37.79,22.43,7.8,33.89,22.92,33.89,43.64,0,32.18-31.69,56.56-66.8,56.56-27.55,0-64.36-13.65-66.31-57.29h46.56c2.68,10.97,9.51,16.82,20.97,16.82,12.43,0,19.5-7.8,19.5-20.23s-7.07-18.53-29.5-18.53h-10.97Z"/>
      <path class="cls-1" d="M285.23,119.7c0,41.69-30.72,67.53-66.55,67.53s-68.02-26.09-68.02-67.53v-52.9C150.66,23.89,184.55,0,218.19,0c36.32,0,67.04,26.33,67.04,66.31v53.39ZM239.15,66.55c0-15.85-6.58-26.09-21.21-26.09-13.65,0-21.21,10.73-21.21,26.09v54.12c0,15.6,7.56,26.08,21.21,26.08,14.63,0,21.21-10.24,21.21-26.08v-54.12Z"/>
      <path class="cls-1" d="M384.94,183.82V3.41h100.2v40.47h-56.07v28.04h54.36v40.47h-54.36v30.96h56.07v40.47h-100.2Z"/>
      <path class="cls-1" d="M625.8,183.82l-69.24-110.19,1.22,110.19h-44.13V3.41h39.74l70.21,114.09-1.95-114.09h44.13v180.4h-39.98Z"/>
      <path class="cls-1" d="M698.69,183.82V3.41h100.2v40.47h-56.07v28.04h54.36v40.47h-54.36v30.96h56.07v40.47h-100.2Z"/>
      <path class="cls-1" d="M913.71,183.82l-41.69-58.27h-.49v58.27h-44.13V3.41h59c18.77,0,33.16,2.44,42.66,6.58,19.5,8.78,33.16,29.99,33.16,55.58,0,28.52-17.06,51.93-44.86,56.8l49,61.44h-52.66ZM888.6,94.1c18.28,0,29.5-8.53,29.5-25.84,0-15.6-11.7-24.38-29.01-24.38h-17.55v50.22h17.06Z"/>
      <path class="cls-1" d="M981.23,97.76c0-55.83,40.23-97.76,95.08-97.76s95.32,40.71,95.32,92.4-41.44,94.83-93.13,94.83-97.27-36.08-97.27-89.47ZM1125.56,93.86c0-28.28-20.23-53.39-49.25-53.39s-49,24.13-49,52.66,20.23,53.63,49.73,53.63,48.51-24.13,48.51-52.9Z"/>
      <path class="cls-1" d="M1342.52,56.07c-1.95-12.92-7.31-17.55-16.33-17.55-8.53,0-15.85,6.09-15.85,14.14,0,10.73,9.75,15.6,29.5,24.14,39.74,17.06,49.73,31.45,49.73,55.1,0,34.86-23.89,55.34-62.9,55.34s-65.09-20.48-65.09-59.24v-3.9h45.83c.24,14.87,7.56,24.62,19.02,24.62,9.51,0,17.31-7.56,17.31-17.31,0-14.38-19.99-20.72-36.32-27.3-29.5-11.95-42.91-27.55-42.91-50.95,0-30.72,29.74-53.15,62.9-53.15,11.95,0,22.43,2.68,31.94,7.56,19.26,10,28.52,24.38,28.77,48.51h-45.59Z"/>
      <path class="cls-1" d="M1403.71,97.76c0-55.83,40.23-97.76,95.08-97.76s95.32,40.71,95.32,92.4-41.44,94.83-93.13,94.83-97.27-36.08-97.27-89.47ZM1548.04,93.86c0-28.28-20.23-53.39-49.25-53.39s-49,24.13-49,52.66,20.23,53.63,49.73,53.63,48.51-24.13,48.51-52.9Z"/>
      <path class="cls-1" d="M1620.19,183.82V3.41h46.08v139.94h53.39v40.47h-99.47Z"/>
      <path class="cls-1" d="M1727.46,97.76c0-55.83,40.23-97.76,95.08-97.76s95.32,40.71,95.32,92.4-41.44,94.83-93.13,94.83-97.27-36.08-97.27-89.47ZM1871.78,93.86c0-28.28-20.24-53.39-49.25-53.39s-49,24.13-49,52.66,20.23,53.63,49.73,53.63,48.51-24.13,48.51-52.9Z"/>
      <path class="cls-1" d="M2018.05,183.82V3.41h100.2v40.47h-56.07v28.04h54.37v40.47h-54.37v30.96h56.07v40.47h-100.2Z"/>
      <path class="cls-1" d="M2258.91,183.82l-69.24-110.19,1.22,110.19h-44.13V3.41h39.74l70.21,114.09-1.95-114.09h44.13v180.4h-39.98Z"/>
      <path class="cls-1" d="M2537.8,71.92c-7.8-19.75-24.87-31.45-43.64-31.45-28.77,0-48.27,24.62-48.27,52.66s19.99,53.63,48.51,53.63c18.28,0,33.89-10.24,43.39-30.47h48.27c-11.21,43.39-48.51,70.94-91.18,70.94-25.11,0-48.76-8.78-67.29-27.06-19.5-19.02-27.79-41.93-27.79-69.24,0-47.78,41.2-90.93,92.88-90.93,24.87,0,44.86,6.83,62.9,22.19,17.07,14.63,27.3,31.21,30.47,49.73h-48.27Z"/>
      <path class="cls-1" d="M2609.96,183.82V3.41h46.08v180.4h-46.08Z"/>
      <path class="cls-1" d="M2800.85,183.82l-69.24-110.19,1.22,110.19h-44.13V3.41h39.74l70.21,114.09-1.95-114.09h44.13v180.4h-39.98Z"/>
      <path class="cls-1" d="M2873.74,183.82V3.41h100.2v40.47h-56.07v28.04h54.37v40.47h-54.37v30.96h56.07v40.47h-100.2Z"/>
      <path class="cls-1" d="M3073.15,56.07c-1.95-12.92-7.31-17.55-16.33-17.55-8.53,0-15.85,6.09-15.85,14.14,0,10.73,9.75,15.6,29.5,24.14,39.74,17.06,49.73,31.45,49.73,55.1,0,34.86-23.89,55.34-62.9,55.34s-65.09-20.48-65.09-59.24v-3.9h45.83c.24,14.87,7.56,24.62,19.02,24.62,9.51,0,17.31-7.56,17.31-17.31,0-14.38-19.99-20.72-36.33-27.3-29.5-11.95-42.91-27.55-42.91-50.95,0-30.72,29.74-53.15,62.9-53.15,11.95,0,22.43,2.68,31.94,7.56,19.26,10,28.52,24.38,28.77,48.51h-45.59Z"/>
    </g>
  </g>
</svg>