<?xml version="1.0" encoding="UTF-8"?>
<svg id="Capa_2" data-name="Capa 2" xmlns="http://www.w3.org/2000/svg" viewBox="0 0 890.51 69.31">
  <defs>
    <style>
      .cls-1 {
        fill: #fff;
      }
    </style>
  </defs>
  <g id="Capa_1-2" data-name="Capa 1">
    <g>
      <path class="cls-1" d="M854.48,42.45v-25.67s.68-.28.68-.28v25.67s-.68.29-.68.29ZM858.3,15.03l-.67.29v25.67s.67-.28.67-.28V15.03ZM864.36,31.03l-.02,6.89.82-.39.02-6.84s.68-3.68.78-5.79c.12-2.53-.77-5.24-.77-5.86,0-1.55,0-7.21,0-7.21l-.75.32c0,5.02,0,6.46,0,7.09-.72,3.76-.86,3.96-.98,5.81-.09,1.45.15,2.49.4,3.74.22,1.09.48,2.25.48,2.25ZM860.79,27.9c.25.18.17.74.19,1.11.02.37-.01,10.45-.01,10.45l.74-.31s0-10.63,0-11.18c0-.34,1.09-1.29.71-2.32-.12-.34-.59-.74-.59-.8-.06-.53-.13-11.36-.13-11.36l-.71.29s.01,10.95,0,11.15c-.01.28-.52.98-.65,1.41-.14.46-.32,1.03.46,1.57ZM867.52,30.19c.17,1.17.23,1.9.23,1.9l.03,4.22.76-.38s.01-3.53.02-3.71c.01-.18.02-.4.06-.91.13-1.55.62-4.7.8-7.27.22-3.31-.49-6.44-.64-7.99-.08-.83-.13-1.95-.09-5.89l-.79.36s.12,4.32-.12,6.16c-.79,4.38-1.1,5.9-.98,7.98.12,2.16.29,3.24.71,5.53ZM871.36,34.64l.89-.43.14-1.61c.67-5.96.81-6.62.88-11.54.06-4.11-.65-8.52-.97-11.67-.05-.44-.03-.89-.03-.89l-.78.32s0,.16,0,.79c-.43,3.31-1.19,7.29-1.27,12.19-.09,5.35,1.03,11.82,1.03,11.82l.11,1.02ZM874.8,33.07l1.47-.7.09-1.52s.35-3.58.46-11.26c.06-4.06-.69-10.87-.77-11.77-.04-.44-.09-.99-.09-.99l-1.17.47s-.07.71-.15,1.6c-.66,6.32-.72,9.99-.74,11.45-.06,4.83.8,11.71.8,11.71l.09,1.02ZM878.24,31.46l1.64-.79.12-1.48s.4-3.53.49-11.2c.04-3.95-.61-10.89-.64-11.62-.02-.44-.11-1.29-.11-1.29l-1.58.67s0,.72-.13,1.61c-.61,6.08-.56,10.09-.58,11.54-.06,4.84.68,11.64.68,11.64l.09.92ZM881.79,29.78l1.79-.81.09-1.52s.26-3.23.38-10.84c.07-4.58-.66-11.6-.67-11.83-.03-.47-.09-1.37-.09-1.37l-1.53.7s-.06.77-.12,1.7c-.55,6.61-.59,9.98-.6,11.39-.04,4.89.65,11.66.65,11.66l.1.92ZM888.86,25.41l.08,1.03,1.55-.69s.02-24.7.01-25.75l-1.59.77s-.07.99-.13,1.93c-.47,6.58-.53,9.38-.52,11.42.02,5.24.61,11.3.61,11.3ZM885.42,28.09l1.78-.81.09-1.57c.27-3.23.26-3.22.38-10.84.07-4.58-.66-11.6-.67-11.83-.03-.47-.1-1.3-.1-1.3l-1.51.64s-.06.77-.12,1.71c-.54,6.61-.59,9.98-.6,11.38-.04,4.9.65,11.66.65,11.66l.11.97ZM856.23,48.57c1.04.24,2.42.32,3.3.44.81.11.75.9.3,1.14-.76.42-2.67.39-3.71-.19-.9-.5-.79-.98-.8-1.1h-.8v2.16h.9v-.19c-.02-.31.41-.07.68.02,1.49.51,3.59.61,4.78-.18,1.33-.87.9-2.51-.62-3.01-1.16-.37-3.02-.31-3.97-.6-.73-.23-.52-1.29,1.65-1.21,2.12.08,2.64,1.06,2.64,1.42h.73v-1.98h-.78c.08.37-.13.42-.31.27-.45-.38-2.99-.95-4.83-.13-1.48.67-1.05,1.98-.79,2.31.34.43.9.65,1.63.81ZM862.88,48.21c-.04-2.25,2.36-3.22,4.35-3.22s4.21.98,4.16,3.22c-.04,2.25-2.19,3.12-4.16,3.12s-4.31-.87-4.35-3.12ZM864.78,48.17c0,1.49,1.08,2.37,2.41,2.33,1.34-.03,2.41-.85,2.42-2.33,0-1.49-1.04-2.33-2.42-2.33s-2.42.84-2.41,2.33ZM887.34,45.3v.74h.48c.16,0,.18.23.11.33l-1.32,1.56s-1.16-1.39-1.32-1.54c-.16-.16-.04-.34.04-.34h.4v-.74h-3.88v.74h.63c.37,0,.57.2.65.31.02.03,2.27,2.5,2.27,2.5v1.3c0,.09-.02.12-.18.14-.16,0-.93,0-.93,0v.73h3.84v-.73h-.84c-.15,0-.16,0-.16-.14v-1.28s2.03-2.4,2.19-2.56c.05-.05.21-.25.45-.25h.74v-.74h-3.17ZM881.11,45.29h-3.26v.73h.71c.17.02.38.02.38.43v2.4l-3.85-3.56h-2.85v.76h.72c.41.01.41.2.4.43v3.47c-.01.17-.05.33-.36.35h-.75v.7h3.37v-.73h-.76c-.17,0-.37.03-.37-.35v-2.86l4.49,3.95h1.07v-4.63c.01-.17.09-.35.27-.35h.78v-.74ZM855.92,55.1v.87c0,.13.04.19.19.19h.41v.45h-2.09v-.45h.4c.16,0,.19-.06.19-.2v-2.19c0-.13-.04-.2-.19-.2h-.38v-.47h2.98c1.02,0,1.35.24,1.35.97s-.46,1.03-1.6,1.03h-1.26ZM855.92,54.63h1.14c.46-.01.73-.12.73-.53,0-.38-.27-.54-.67-.54h-1.2v1.07ZM860.92,53.54h.4v-.46h-2.08v.46h.4c.16,0,.19.09.19.22v2.2c0,.13-.04.19-.19.19h-.4v.46h2.08v-.46h-.4c-.15,0-.19-.06-.19-.19v-2.2c0-.14.04-.22.19-.22ZM865.28,53.27c-.14-.14-.7-.36-1.32-.37-1.04-.02-2.32.58-2.29,1.99.02,1.45,1.35,1.9,2.42,1.9,1.13,0,1.75-.72,1.82-1.26h-.41c-.15.67-.9.81-1.38.81-.72,0-1.44-.59-1.44-1.46,0-.78.41-1.42,1.24-1.52.79-.1,1.52.3,1.55.94h.38v-1.21h-.41c.04.27-.07.26-.16.17ZM869.84,53.55c.33.03.42-.06.41.89h.42v-1.34h-4.19v1.34h.43c0-.92.05-.85.41-.89h.81s0,2.43,0,2.43c0,.13-.04.22-.19.22h-.4v.43h2.08v-.43h-.4c-.16,0-.19-.09-.19-.22v-2.43h.81ZM875.34,53.54h.4v-.46h-1.76v.46h.4c.16,0,.19.08.19.22v1.77c0,.4-.09.82-1.08.82-.88,0-.83-.7-.83-.82v-1.78c0-.13.04-.22.19-.22h.4v-.46h-2.08v.46h.4c.16,0,.19.08.19.22v1.73c0,1.08.89,1.28,1.73,1.28s1.68-.21,1.68-1.24v-1.62c-.01-.26.08-.37.18-.37ZM879.33,55.86v-.39c0-.26-.22-.38-.62-.38h-1.02v.87c0,.13.04.19.19.19h.4v.47s-2.08,0-2.08,0v-.47h.4c.16,0,.19-.06.19-.19v-2.19c0-.13-.04-.23-.2-.23h-.38v-.44h2.91c1.02,0,1.36.33,1.35.99,0,.57-.48.75-.88.82.35.09.6.16.62.59v.51c0,.1.02.25.19.25.18,0,.17-.21.16-.4v-.22h.37v.26c0,.63-.15.81-.7.81-.47,0-.91-.15-.91-.85ZM879.5,54.09c0-.33-.28-.54-.63-.54h-1.18v1.08h1.14c.44,0,.67-.2.67-.54ZM884.77,53.53c.36.03.43.22.43.9h.4v-1.34h-4.19v.46h.4c.16,0,.19.09.19.22v2.2c0,.13-.04.19-.19.19h-.4v.46h4.19v-1.34h-.4c0,.68-.07.85-.43.89h-1.87v-1.12h.87c.11,0,.19.05.19.23v.37h.39v-1.65h-.39v.37c0,.18-.07.22-.19.22h-.87s0-1.06,0-1.06h1.87ZM889.54,53.33c-.5-.28-1.57-.57-2.53-.07-.81.42-.56,1.18-.42,1.4.18.26.47.39.86.49.54.14,1.27.19,1.73.26.53.08.42.55.16.71-.56.36-1.24.31-1.94-.14-.47-.3-.42-.59-.42-.67h-.42v1.31h.47v-.11c-.01-.19.22-.04.36.01.78.31,1.88.37,2.51-.1.7-.53.47-1.52-.33-1.82-.61-.23-1.6-.15-2.08-.36-.43-.2-.28-.82.86-.79,1.11.03,1.39.7,1.39.91h.38v-1.22h-.41c.04.25-.05.26-.16.19ZM890.35,58.83h-36.08v.7h36.08v-.7ZM856.75,62.1l1.4,2.23h.63v-2.3c0-.08.06-.14.21-.14h.25v-.31h-1.4v.31h.26c.15,0,.22.07.22.19v1.48h0l-1.25-1.98h-1.26v.31h.3c.13,0,.18.04.18.15v1.82c0,.1-.04.16-.18.16h-.3v.31h1.42v-.31h-.32c-.11,0-.18-.07-.18-.16v-1.75h0ZM869.07,62.1l1.4,2.23h.63v-2.3c0-.08.06-.14.21-.14h.25v-.31h-1.4v.31h.26c.15,0,.22.07.22.19v1.48h0l-1.25-1.98h-1.26v.31h.3c.13,0,.18.04.18.15v1.82c0,.1-.04.17-.18.17h-.3v.31h1.42v-.31h-.32c-.11,0-.18-.07-.18-.17v-1.75h0ZM873.42,63.95s0-.07-.02-.1l-.14-.41h-.97l-.14.41s-.02.05-.02.09c0,.06.06.07.14.07h.33v.31h-1.34v-.31c.23,0,.38-.03.45-.22l.82-2.22h.6l.86,2.22c.08.2.22.22.45.22v.31h-1.49v-.31h.34c.1,0,.13-.02.13-.06ZM873.14,63.13l-.37-1h0l-.34,1h.72ZM878.28,62.95c0-.83.62-1.46,1.55-1.46s1.55.64,1.55,1.46-.62,1.45-1.55,1.45-1.55-.63-1.55-1.45ZM878.95,62.95c0,.59.2,1.13.89,1.13s.86-.54.86-1.13-.18-1.14-.87-1.14-.87.54-.87,1.14ZM882.25,62.1l1.4,2.23h.63v-2.3c0-.08.06-.14.21-.14h.25v-.31h-1.4v.31h.26c.15,0,.22.07.22.19v1.48h0l-1.25-1.98h-1.27v.31h.3c.13,0,.18.04.18.15v1.82c0,.1-.04.16-.18.16h-.3v.31h1.42v-.31h-.32c-.11,0-.18-.07-.18-.16v-1.75h0ZM887.67,64.01v.31h-1.49v-.31h.34c.1,0,.13-.02.13-.06,0-.04,0-.07-.02-.1l-.14-.41h-.97l-.14.41s-.02.05-.02.09c0,.06.06.07.14.07h.33v.31h-1.34v-.31c.23,0,.38-.03.45-.22l.82-2.22h.6l.86,2.22c.08.2.22.22.45.22ZM886.37,63.13l-.37-1h0l-.34,1h.72ZM888.02,64.01h-.27v.31h2.68v-1.18h-.32c-.04.64-.15.88-.59.88h-.7v-1.95c0-.14.06-.19.25-.19h.24v-.31h-1.57v.31h.25c.17,0,.23.05.23.18v1.77c0,.14-.08.18-.2.18ZM855.53,63.96h-.25c-.1,0-.12-.05-.12-.15v-1.71c0-.1.02-.17.12-.17h.25v-.35h-1.28v.36h.25c.1,0,.12.07.12.17v1.71c0,.1-.02.15-.12.15h-.25v.36h1.28v-.36ZM860.99,63.81v-1.89h.5c.2.03.26-.04.25.69h.26v-1.04h-2.58v1.04h.26c0-.71.03-.67.25-.69h.5s0,1.89,0,1.89c0,.1-.02.17-.12.17h-.25v.34h1.28v-.34h-.25c-.1,0-.12-.07-.12-.17ZM862.21,61.92h.25c.09,0,.12.07.12.17v1.71c0,.1-.02.15-.12.15h-.25v.35h2.58v-1.04h-.25c0,.53-.04.66-.26.69h-1.15v-.87h.54c.07,0,.12.03.12.18v.29h.24v-1.29h-.24v.28c0,.14-.05.18-.12.18h-.54v-.82h1.15c.22.03.26.17.26.71h.25v-1.04h-2.58v.36ZM866.99,63.72v-.3c0-.2-.13-.3-.38-.29h-.63v.67c0,.1.02.15.12.15h.25v.36s-1.28,0-1.28,0v-.37h.25c.1,0,.12-.05.12-.15v-1.71c0-.1-.02-.18-.12-.18h-.23v-.34h1.8c.63,0,.84.26.83.77,0,.44-.29.58-.54.64.22.07.37.12.38.45v.4c0,.08.01.19.11.19.11,0,.1-.16.1-.31v-.17h.23v.2c0,.49-.09.63-.43.63-.29,0-.56-.11-.56-.66ZM867.09,62.34c0-.26-.17-.42-.39-.42h-.73v.84h.7c.27,0,.41-.16.41-.42ZM876.16,61.92c.2.03.26-.04.25.69h.26v-1.04h-2.58v1.04h.26c0-.71.03-.67.25-.69h.5s0,1.89,0,1.89c0,.1-.02.17-.12.17h-.25v.34h1.28v-.34h-.25c-.1,0-.12-.07-.12-.17v-1.89h.5ZM877.92,61.93h.25v-.36h-1.28v.36h.25c.1,0,.12.07.12.17v1.71c0,.1-.02.15-.12.15h-.25v.36h1.28v-.35h-.25c-.1,0-.12-.05-.12-.15v-1.71c0-.1.02-.17.12-.17ZM857.38,67.17c0,.58-.33.81-1.16.81h-.91v.68c0,.1.03.15.14.15h.3v.36h-1.51v-.36h.29c.11,0,.14-.05.14-.15v-1.73c0-.1-.03-.16-.14-.16h-.27v-.37h2.16c.74,0,.97.19.97.76ZM856.66,67.19c0-.3-.19-.43-.48-.43h-.87v.84h.82c.33,0,.53-.1.53-.42ZM860.86,68.4h.27v.2c0,.49-.11.63-.5.63-.33,0-.65-.12-.65-.66v-.3c0-.2-.15-.3-.44-.3h-.73v.68c0,.1.03.15.14.15h.29v.37s-1.49,0-1.49,0v-.37h.29c.11,0,.14-.05.14-.15v-1.71c0-.11-.03-.18-.14-.18h-.27v-.34h2.09c.73,0,.98.26.97.77,0,.44-.34.59-.63.64.25.07.43.13.44.46v.4c0,.08.01.2.13.2s.12-.16.11-.31v-.17ZM860.09,67.19c0-.26-.2-.42-.45-.42h-.84v.84h.82c.31,0,.48-.16.48-.42ZM878.61,66.75h.29c.11,0,.14.07.14.17v1.73c0,.1-.03.15-.14.15h-.29v.36h1.5v-.36h-.29c-.11,0-.14-.05-.14-.15v-1.73c0-.11.03-.18.14-.18h.29v-.36h-1.5v.36ZM875.25,67.45h.31c0-.72.03-.67.29-.7h.58s0,1.91,0,1.91c0,.1-.03.17-.14.17h-.29v.34h1.5v-.34h-.29c-.11,0-.14-.07-.14-.17v-1.91h.59c.24.03.3-.04.29.7h.31v-1.05h-3.03v1.05ZM873.61,68.96c-.52,0-1.03-.46-1.03-1.13,0-.61.29-1.1.89-1.17.56-.08,1.08.24,1.11.73h.27v-.94h-.29c.03.21-.05.2-.12.13-.1-.11-.5-.28-.94-.28-.74-.02-1.65.45-1.63,1.55.02,1.13.96,1.48,1.72,1.48.8,0,1.25-.56,1.3-.98h-.29c-.11.52-.64.63-.98.63ZM870.42,66.77h.29c.11,0,.14.06.14.17v1.4c0,.31-.07.65-.78.65-.64,0-.6-.55-.6-.65v-1.4c0-.11.03-.17.14-.17h.29v-.36h-1.5v.36h.29c.11,0,.14.06.14.17v1.36c0,.85.64,1.01,1.25,1.01s1.21-.16,1.21-.98v-1.27c-.01-.21.06-.29.13-.29h.29v-.36h-1.28v.36ZM868.27,67.79c0,.92-.62,1.39-1.55,1.39h-1.86v-.36s.3,0,.3,0c.11,0,.2-.05.2-.16v-1.75c0-.11-.09-.15-.2-.15h-.3v-.36h1.86c.94,0,1.55.47,1.55,1.39ZM867.54,67.79c0-.82-.42-1.02-.91-1.02h-.62v2.05s.57,0,.57,0c.54,0,.96-.21.96-1.03ZM883.68,67.81c0,.84-.65,1.49-1.62,1.49s-1.62-.64-1.62-1.49.65-1.49,1.62-1.49,1.62.65,1.62,1.49ZM882.98,67.81c0-.61-.19-1.16-.91-1.16s-.92.55-.92,1.16.21,1.16.93,1.16.9-.55.9-1.16ZM885.98,66.71h.27c.16,0,.23.07.23.2v1.48h0l-1.28-1.99h-1.3v.31h.31c.14,0,.18.04.18.15v1.83c0,.1-.04.17-.18.17h-.31v.31h1.46v-.31h-.33c-.11,0-.18-.07-.18-.17v-1.76h0l1.44,2.24h.65v-2.31c0-.09.06-.15.22-.15h.26v-.31h-1.43v.31ZM864.62,67.82c0,.85-.65,1.49-1.62,1.49s-1.62-.65-1.62-1.49.65-1.5,1.62-1.5,1.62.65,1.62,1.5ZM863.92,67.82c0-.61-.19-1.16-.92-1.16s-.92.56-.92,1.16.21,1.16.93,1.16.9-.55.9-1.16ZM889.95,67.59c-.44-.18-1.16-.12-1.5-.29-.31-.15-.2-.64.62-.62.8.02,1,.55,1,.72h.28v-.96h-.3c.03.2-.03.2-.12.15-.36-.22-1.13-.45-1.83-.06-.58.33-.41.92-.3,1.1.13.21.34.31.62.39.39.11.92.15,1.25.21.38.06.3.43.11.56-.41.28-.9.24-1.4-.11-.34-.24-.31-.46-.3-.52h-.3v1.03h.34v-.09c0-.15.16-.03.26.01.56.24,1.36.29,1.81-.09.5-.41.34-1.19-.24-1.43Z"/>
      <path class="cls-1" d="M691.96,27.05l.52,12.06h-2.71l-.31-7.72-3.83,7.72h-1.7l-1.82-7.96-2.4,7.96h-2.78l3.64-12.06h2.97l1.75,7.66,3.78-7.66h2.89ZM702.97,36.95h-5.43l.37-2.98h3.91l.28-2.16h-3.88l.34-2.62h4.47l.28-2.15h-7.3l-1.6,12.06h8.28l.28-2.16ZM709.49,39.11h-5.09l1.59-12.06h4.06c.96,0,1.8.16,2.52.47.72.31,1.31.75,1.77,1.3.46.55.8,1.18,1.02,1.88.22.71.33,1.46.33,2.26,0,1.34-.23,2.47-.7,3.38-.47.91-1.16,1.6-2.08,2.07-.92.47-2.06.7-3.42.7ZM709,36.95c.71,0,1.31-.12,1.82-.35.51-.23.91-.54,1.2-.93.29-.39.5-.8.62-1.26.12-.45.18-.93.18-1.42,0-.6-.1-1.19-.31-1.76-.21-.57-.6-1.05-1.16-1.45-.56-.4-1.34-.6-2.34-.6h-.45l-1.03,7.75h1.48ZM721.55,27.05h-2.84l-1.63,12.06h2.83l1.65-12.06ZM725.55,39.11h2.8l1.32-9.61h3.57l.33-2.45h-9.93l-.34,2.45h3.55l-1.3,9.61ZM742.57,36.95h-5.43l.37-2.98h3.91l.28-2.16h-3.88l.34-2.62h4.47l.28-2.15h-7.3l-1.6,12.06h8.28l.28-2.16ZM746.79,39.11h-2.8l1.6-12.06h4.31c1.57,0,2.63.38,3.19,1.13.56.75.84,1.57.84,2.45,0,.92-.23,1.64-.7,2.15-.47.51-1.11.83-1.95.95.42.27.75.58.98.94.23.36.51.92.82,1.68l1.2,2.76h-3.08l-1.1-2.52c-.32-.76-.61-1.33-.84-1.71-.24-.38-.45-.61-.63-.7-.18-.09-.42-.13-.72-.13h-.42l-.7,5.06ZM747.73,32.29h1.12c.79,0,1.34-.18,1.66-.54.32-.36.48-.77.48-1.21,0-.46-.16-.87-.47-1.21-.31-.34-.94-.52-1.88-.52h-.44l-.46,3.48ZM774.28,27.05l2.02,12.06h-2.94l-.29-2.67h-3.37l-1.12,2.67h-5.9l-1.1-2.52c-.32-.76-.6-1.33-.84-1.71-.24-.38-.45-.61-.63-.7-.18-.09-.42-.13-.73-.13h-.42l-.7,5.06h-2.8l1.6-12.06h4.31c1.57,0,2.63.38,3.19,1.13.56.75.84,1.57.84,2.45,0,.92-.23,1.64-.7,2.15-.46.51-1.11.83-1.95.95.42.27.75.58.98.94.23.36.51.92.82,1.68l1.16,2.69,5.56-11.99h2.99ZM762.45,30.54c0-.46-.16-.87-.47-1.21-.31-.34-.94-.52-1.88-.52h-.44l-.46,3.48h1.12c.79,0,1.34-.18,1.66-.54.32-.36.48-.77.48-1.21ZM772.88,34.74l-.53-4.61-1.92,4.61h2.45ZM775.74,23.33l-2.56-.02-1.72,3.12h1.69l2.59-3.09ZM781.55,31.85l4.32,7.26h2.63l1.65-12.06h-2.82l-1,7.25-4.33-7.25h-2.65l-1.63,12.06h2.81l1.01-7.26ZM791.38,39.11h8.28l.28-2.16h-5.43l.37-2.98h3.91l.28-2.16h-3.88l.34-2.62h4.47l.28-2.15h-7.3l-1.6,12.06ZM812.61,29.47c.46.84.7,1.81.7,2.92,0,.98-.15,1.89-.44,2.72-.3.84-.72,1.57-1.29,2.19-.56.62-1.24,1.11-2.02,1.45-.78.34-1.65.51-2.62.51-.88,0-1.74-.18-2.59-.55-.85-.37-1.55-.96-2.1-1.79-.55-.83-.83-1.88-.83-3.15,0-1.1.18-2.09.53-2.96.35-.87.83-1.6,1.44-2.18.61-.59,1.3-1.02,2.07-1.32.77-.29,1.59-.44,2.45-.44,1.02,0,1.94.22,2.76.67.82.44,1.46,1.08,1.93,1.92ZM810.35,32.6c0-.6-.11-1.13-.33-1.58-.22-.45-.52-.8-.91-1.05-.38-.25-.83-.37-1.33-.37-.71,0-1.32.2-1.84.61-.52.41-.91.93-1.18,1.55-.27.62-.4,1.25-.4,1.88,0,.81.23,1.5.7,2.07.46.57,1.1.85,1.92.85.52,0,.98-.11,1.39-.32.41-.21.77-.51,1.07-.89.3-.38.52-.81.67-1.28.15-.47.22-.96.22-1.47ZM816.49,33.83c-1.46,0-2.59,1.18-2.58,2.64,0,1.46,1.14,2.59,2.6,2.58,1.46,0,2.63-1.14,2.63-2.6,0-1.46-1.19-2.63-2.64-2.63ZM705.4,46.66l-1.71,3.58-.84-3.57h-1.19s-1.65,5.69-1.65,5.69h1.1s1.14-3.96,1.14-3.96h.01l.91,3.95h.52s1.89-3.85,1.89-3.85h.02l.17,3.84h1.05s-.26-5.69-.26-5.69h-1.16ZM711.33,47.59l.12-.95h-3.2s-.7,5.7-.7,5.7h3.75s.12-.96.12-.96h-2.66s.18-1.48.18-1.48h1.85s.12-.96.12-.96h-1.85s.17-1.34.17-1.34h2.11ZM716.98,49.39c0,1.69-1.04,2.92-2.41,2.93h-2.64s.69-5.68.69-5.68h1.7c2.04-.01,2.65,1.52,2.65,2.75ZM715.86,49.38c0-1-.61-1.8-1.73-1.8h-.52s-.46,3.79-.46,3.79h1.02c1.21,0,1.7-1.01,1.7-1.99ZM718.21,46.62l-.7,5.69h1.09s.7-5.69.7-5.69h-1.09ZM722.91,46.53l.92,5.76h-1.12s-.16-1.24-.16-1.24h-1.59s-.49,1.25-.49,1.25h-1.2s2.49-5.77,2.49-5.77h1.16ZM722.46,50.24l-.28-2.52h-.02l-.89,2.52h1.19ZM724.51,48.24c0,1.49,1.89,1.59,1.89,2.54,0,.38-.29.63-.73.63-.43,0-1.03-.25-1.45-.58l-.16.99c.46.33,1,.54,1.74.54,1.15,0,1.73-.83,1.73-1.75,0-1.59-1.89-1.69-1.89-2.51,0-.38.32-.63.72-.63.39,0,.94.23,1.27.5l.15-1c-.44-.29-.97-.45-1.46-.44-1.04,0-1.8.74-1.79,1.72ZM731.93,47.52l.12-.95h-3.2s-.7,5.7-.7,5.7h3.74s.12-.96.12-.96h-2.66s.18-1.48.18-1.48h1.85s.12-.96.12-.96h-1.85s.17-1.34.17-1.34h2.11ZM732.62,47.52h1.62s-.58,4.73-.58,4.73h1.09s.58-4.74.58-4.74h1.67s.12-.96.12-.96h-4.37s-.12.96-.12.96ZM758.32,44.94l-.21.51s.34-.05,1-.05h1.91c.84,0,1.12-.77,1.19-.95l.08-.21h-2.89c-.55.01-.87.2-1.08.7ZM769.07,49.72c-.7,0-1.25.57-1.25,1.28,0,.7.55,1.25,1.26,1.25.7,0,1.27-.55,1.27-1.26,0-.71-.57-1.27-1.28-1.27ZM741.68,48.5c0,.36-.03.6-.14,1.05l-3.12.02c-.04.29-.05.43-.05.62,0,.77.33,1.21.92,1.21.53,0,.89-.29,1.26-.98h.84c-.37,1.19-1.13,1.81-2.2,1.82-1.18,0-1.89-.8-1.89-2.15,0-1.98,1.17-3.52,2.7-3.53,1.04,0,1.68.73,1.68,1.94ZM740.65,48.27c0-.57-.27-.9-.72-.9-.58,0-1.05.5-1.34,1.45l2.01-.03c.04-.23.05-.36.05-.52ZM745.27,49.46c-.18-.15-.33-.25-.8-.55q-.51-.31-.63-.4c-.15-.13-.22-.28-.22-.46,0-.42.34-.71.84-.71.5,0,.8.27.8.75,0,.08-.01.15-.03.3h.69s.38-1.73.38-1.73h-.68s-.11.51-.11.51c-.24-.43-.62-.62-1.19-.62-1,0-1.75.71-1.74,1.66,0,.61.23.9,1.17,1.46q.56.34.69.45c.17.13.25.3.25.51,0,.47-.37.81-.9.81-.58,0-.96-.35-.96-.91,0-.09,0-.16.03-.31h-.69s-.42,1.91-.42,1.91h.69s.13-.61.13-.61c.22.47.67.72,1.31.72,1.06,0,1.85-.74,1.85-1.74,0-.43-.16-.77-.46-1.03ZM751.49,48.63c0,1.92-1.15,3.57-2.51,3.57-.66,0-1.08-.32-1.27-.94l-.51,2.32h.83s-.17.78-.17.78h-2.49s.17-.78.17-.78h.7s1.36-6.19,1.36-6.19h-.76s.16-.75.16-.75h1.7s-.15.69-.15.69c.39-.53.86-.81,1.39-.81.91,0,1.54.87,1.55,2.11ZM750.44,48.53c0-.74-.32-1.19-.82-1.18-.42,0-.78.28-1.06.83-.27.52-.49,1.45-.49,2.04,0,.7.32,1.15.81,1.15.44,0,.81-.3,1.1-.89.27-.55.45-1.35.45-1.95ZM755.42,51.28h.72s-.17.78-.17.78h-1.64s.16-.78.16-.78c-.38.62-.8.9-1.37.9-.76,0-1.3-.56-1.31-1.36,0-.79.54-1.47,1.46-1.83.48-.19.84-.28,1.78-.46l.04-.21c.05-.25.07-.36.07-.48,0-.35-.24-.53-.69-.53-.62,0-.95.29-1.17,1.04h-.72s.33-1.27.33-1.27c.56-.42,1.05-.59,1.7-.59.95,0,1.51.46,1.51,1.24,0,.28-.03.47-.14,1l-.56,2.53ZM754.9,49.18c-.64.14-.94.23-1.26.4-.48.24-.75.61-.75,1.05,0,.41.26.69.66.69.37,0,.73-.24.94-.65.1-.21.14-.35.3-1.03l.1-.46ZM761.53,49.03c.17-.82.2-.99.2-1.29,0-.75-.46-1.26-1.15-1.25-.57,0-1.05.33-1.49,1.01l.2-.89h-1.74s-.17.76-.17.76h.77s-.87,3.91-.87,3.91h-.69s-.17.79-.17.79h2.34s.16-.79.16-.79h-.6s.49-2.23.49-2.23c.12-.58.2-.77.34-1.01.24-.36.55-.56.88-.56.38,0,.6.24.61.63,0,.16-.03.39-.09.66l-.55,2.49h-.53s-.17.79-.17.79h2.33s.17-.79.17-.79h-.77s.5-2.23.5-2.23ZM766.05,51.24h.72s-.17.78-.17.78h-1.65s.16-.78.16-.78c-.38.62-.8.9-1.37.9-.76,0-1.3-.56-1.31-1.36,0-.79.54-1.47,1.46-1.83.48-.19.84-.28,1.78-.46l.04-.21c.05-.25.07-.36.07-.48,0-.35-.24-.53-.69-.53-.62,0-.95.29-1.17,1.04h-.72s.33-1.27.33-1.27c.56-.42,1.05-.59,1.71-.59.95,0,1.51.46,1.51,1.24,0,.28-.03.47-.14,1l-.56,2.53ZM765.53,49.15c-.64.14-.94.23-1.26.4-.48.24-.75.62-.75,1.05,0,.41.26.69.66.69.38,0,.73-.24.95-.65.1-.21.14-.35.3-1.03l.1-.46ZM773.13,47.99c-.42.19-.73.42-.93.7-.2.28-.34.55-.41.83-.07.27-.1.53-.1.76,0,.33.06.62.17.88s.28.47.49.64c.21.17.45.3.72.39.27.08.55.13.85.13.21,0,.43-.02.64-.06.21-.04.4-.08.57-.14.17-.05.33-.11.49-.17l.31-2.17h-1.8l-.12.8h.78l-.09.59c-.05.02-.11.04-.18.06-.07.02-.15.04-.25.05-.09.02-.19.02-.29.02-.23,0-.43-.05-.6-.16-.17-.1-.3-.24-.39-.42-.09-.17-.13-.36-.13-.55,0-.23.06-.46.18-.69.12-.23.32-.42.6-.57.28-.15.62-.23,1.04-.23s.86.07,1.33.2l.15-.97c-.48-.13-.97-.2-1.48-.2-.64,0-1.17.09-1.58.28ZM780.2,51.22l.48,1.02h-1.25l-.45-.93c-.13-.28-.25-.49-.34-.63-.1-.14-.18-.23-.26-.26-.07-.03-.17-.05-.29-.05h-.17l-.28,1.88h-1.13l.65-4.48h1.75c.64,0,1.07.14,1.29.42.23.28.34.58.34.91,0,.34-.09.61-.28.8-.19.19-.45.31-.79.35.17.1.31.22.4.35.09.13.21.34.33.62ZM779.34,49.07c0-.17-.06-.32-.19-.45-.13-.13-.38-.19-.76-.19h-.18l-.19,1.29h.45c.32,0,.54-.07.67-.2.13-.13.19-.28.19-.45ZM785.72,48.67c.19.31.28.67.28,1.08,0,.36-.06.7-.18,1.01-.12.31-.29.58-.52.81-.23.23-.5.41-.82.54-.32.13-.67.19-1.06.19-.36,0-.7-.07-1.05-.2-.34-.14-.63-.36-.85-.66-.22-.31-.34-.7-.34-1.17,0-.41.07-.78.21-1.1.14-.32.34-.59.58-.81.25-.22.53-.38.84-.49.31-.11.64-.16.99-.16.41,0,.79.08,1.12.25.33.16.59.4.78.71ZM784.8,49.83c0-.22-.04-.42-.13-.59-.09-.17-.21-.3-.37-.39-.16-.09-.34-.14-.54-.14-.29,0-.53.08-.74.23-.21.15-.37.34-.48.57-.11.23-.16.46-.16.7,0,.3.09.56.28.77.19.21.45.32.78.32.21,0,.4-.04.56-.12.17-.08.31-.19.43-.33.12-.14.21-.3.27-.47.06-.18.09-.36.09-.54ZM790.03,50.34c-.04.24-.11.43-.22.57-.11.14-.24.24-.39.3-.15.06-.32.09-.51.09-.37,0-.63-.08-.77-.24s-.21-.37-.21-.61c0-.11,0-.22.03-.34l.34-2.34h-1.14l-.34,2.22c-.04.25-.06.47-.06.66,0,.23.06.48.19.73.13.25.35.47.67.65.32.18.75.27,1.29.27.4,0,.76-.07,1.08-.2.32-.13.58-.33.78-.6.2-.27.33-.6.39-1l.4-2.74h-1.14l-.39,2.57ZM795.55,48.15c.25.26.37.58.37.98,0,.27-.06.52-.17.75-.11.23-.29.41-.53.56-.24.14-.54.21-.91.21h-.93l-.23,1.6h-1.15l.66-4.48h1.68c.55,0,.95.13,1.2.38ZM794.74,49.19c0-.15-.03-.28-.1-.39-.07-.12-.17-.21-.31-.27-.14-.07-.3-.1-.49-.1h-.11l-.23,1.58h.32c.29,0,.52-.07.68-.2.16-.13.24-.34.24-.61Z"/>
      <path class="cls-1" d="M610.96,44.56h-7.73l3.81-14.76h.11l2.09,8.09,1.72,6.67h0ZM601.85,51.07l-1.66,7.59h13.81l-1.66-7.59h-10.49ZM587.18,33.65c-1.26,0-1.97.99-1.97,2.73v.05h3.82v-.15c0-.94-.1-1.43-.39-1.9-.32-.49-.79-.74-1.45-.74ZM601.4,22.93l-4.34,16.38-5.12,19.34h-36.87V22.93h46.32ZM572.08,42.69l-1.5-1.99h0l-.2.17c-.81.71-1.5,1.03-2.27,1.03-.46,0-.92-.18-1.26-.49-.08-.07-.15-.14-.21-.22-.31-.41-.52-1.06-.6-2.06-.03-.33-.04-.7-.04-1.12,0-.18,0-.36,0-.53.08-2.57.75-3.7,2.13-3.7.62,0,1.33.37,1.99.99h0s0,0,0,0l1-1.36.6-.81c-.49-.42-.72-.61-1.11-.82-.04-.02-.08-.04-.12-.07-.26-.14-.55-.25-.85-.34s-.63-.15-.95-.19c-.21-.02-.43-.04-.64-.04h0c-.49,0-1.01.08-1.51.22-.59.16-1.16.41-1.62.72-.18.13-.36.27-.54.42-1.2,1.08-2.05,2.87-2.05,5.41,0,4.09,2.02,6.5,5.49,6.5.73,0,1.38-.1,1.98-.3.39-.13.75-.29,1.1-.49.14-.09.26-.17.38-.25.15-.11.29-.22.46-.38.1-.09.2-.19.32-.31ZM581.19,31.48c-.52-.22-.74-.27-1.23-.27-.22,0-.46.03-.68.08-.15.03-.29.07-.4.12-.62.27-1.4.96-1.87,1.6,0-.07-.02-.13-.02-.2-.02-.23-.06-.45-.11-.65-.01-.04-.02-.09-.03-.12-.01-.04-.03-.08-.05-.13-.03-.1-.07-.2-.11-.3-.06-.14-.12-.27-.2-.4l-2.95.79c.03.09.07.19.1.29.22.75.37,1.91.37,3.4v8.42h3.3v-8.91c.62-.71,1.28-1.06,2.02-1.06.37,0,.64.07.96.25h0s0,0,0,0l.61-1.94.3-.97ZM592.44,38.08c0-2.21-.37-3.76-1.17-4.9-.15-.22-.32-.43-.51-.62-.3-.31-.69-.58-1.13-.79-.39-.19-.84-.33-1.3-.42-.05,0-.1-.02-.15-.03-.07-.01-.13-.02-.2-.03-.28-.04-.57-.06-.87-.06-1.67,0-2.93.54-3.96,1.7-.15.17-.29.34-.42.52-.81,1.14-1.16,2.52-1.16,4.48,0,2.6,1.01,4.59,2.73,5.66.9.56,1.99.87,3.23.87h0c.61,0,1.19-.07,1.75-.21,1.07-.26,2.05-.76,3.01-1.54l-1.28-1.97h0s0,0,0,0c-1.01.84-2.07,1.26-3.2,1.26-1.7,0-2.66-1.11-2.66-3.05v-.1h7.29v-.76ZM629.34,32.38c-.19-.21-.5-.33-.85-.33-.52,0-.89.21-1.03.61-.07.19-.12.53-.12.92,0,.01,0,.02,0,.04v.61h2.28v-.57c0-.27-.01-.49-.03-.66-.04-.29-.12-.47-.25-.61ZM641.83,22.93v35.73h-19.57l-4.68-17.69-2.2-8.32-2.57-9.72h0s29.03,0,29.03,0ZM625.98,35.88h8.43v-1.66h0s-3.52,0-3.52,0c0-.08.03-.13.05-.19,0-.02.02-.05.03-.07.07-.15.2-.29.51-.5.04-.03.08-.05.12-.08.31-.2.76-.45,1.43-.82.47-.26.71-.4,1.07-.61.09-.06.19-.11.31-.18v-2s-2.67,1.54-3.28,2.03c-.15.11-.22.18-.35.35,0-.3-.1-.59-.26-.84-.39-.62-1.17-1.04-2.07-1.04-.69,0-1.28.22-1.71.6-.49.43-.77,1.08-.77,1.87v3.14h0ZM625.84,40.45c0,.8.18,1.43.59,2.05.69,1.03,1.74,1.6,3.19,1.73.21.02.42.03.64.03,1.26,0,2.16-.28,2.95-.9.87-.68,1.29-1.61,1.29-2.88,0-.25-.02-.49-.05-.74-.09-.73-.32-1.42-.71-2.07h-4.03v3.26l1.38-.22v-1.29h1.92c.15.28.21.58.21.96,0,.14-.01.27-.03.39-.06.37-.21.69-.44.93-.1.1-.22.18-.36.26-.45.25-1.12.37-2.05.37h0c-.51,0-.96-.03-1.36-.09-.36-.06-.66-.15-.92-.3-.16-.09-.31-.2-.43-.33-.07-.07-.12-.14-.17-.23-.17-.27-.25-.61-.25-.99,0-.08,0-.16,0-.24.05-.55.25-1.04.65-1.52l-1.06-.9h0c-.23.26-.41.54-.56.84-.27.56-.41,1.18-.41,1.84ZM634.59,48.71c0-1.15-.34-2.08-.92-2.69-.08-.09-.17-.17-.27-.24-.07-.06-.15-.11-.23-.16-.16-.1-.34-.18-.52-.24-.28-.09-.58-.14-.9-.14-1.25,0-2.14.75-2.51,2.14l-.28,1.02c-.17.62-.36.87-.7.92-.05,0-.1.01-.15.01-.07,0-.14,0-.21-.02-.06-.01-.11-.03-.16-.05-.37-.16-.6-.57-.6-1.1h0c0-.47.1-.91.35-1.42.08-.17.18-.35.3-.54l-1.21-.8c-.47.65-.77,1.53-.83,2.43,0,.13-.01.26-.01.39,0,1.78,1.07,3.02,2.61,3.02.47,0,.91-.12,1.29-.35.51-.3.84-.83,1.07-1.66l.25-.93c.15-.56.38-.9.72-1.04.11-.04.24-.07.37-.07.75,0,1.15.51,1.15,1.48,0,.32-.04.61-.11.9-.11.48-.32.93-.57,1.42h0s1.32.63,1.32.63c.12-.21.23-.44.32-.67.28-.7.44-1.48.44-2.2h0Z"/>
      <path class="cls-1" d="M462.47,33.83c0-5.03-2.2-8.38-5.53-8.38-1.76,0-3.36,1.08-4.06,2.74h-.15l-.39-1.89c-.07-.35-.25-.5-.54-.5h-2.55c-.29,0-.5.21-.5.5v20.08c0,.29.21.5.5.5h3.09c.29,0,.5-.21.5-.5v-6.8h.15c.95,1.8,2.22,2.63,3.94,2.63,3.32,0,5.53-3.34,5.53-8.39ZM455.51,38.8c-1.76,0-2.74-1.8-2.74-4.97s.99-4.96,2.74-4.96,2.71,1.78,2.71,4.96-.97,4.97-2.71,4.97ZM464.71,41.37v-15.06c0-.29.21-.5.5-.5h2.55c.31,0,.47.19.54.5l.39,1.89h.15c.7-1.76,2.05-2.7,3.83-2.7.73,0,1.35.15,1.85.39.27.15.33.34.23.73l-.73,2.96c-.08.31-.35.39-.7.23-.7-.31-1.31-.58-2.09-.58-1.58,0-2.43,1.2-2.43,3.42v8.72c0,.29-.21.5-.5.5h-3.09c-.29,0-.5-.21-.5-.5ZM479.82,25.81c.29,0,.5.21.5.5v15.06c0,.29-.21.5-.5.5h-3.09c-.29,0-.5-.21-.5-.5v-15.06c0-.29.21-.5.5-.5h3.09ZM475.88,22.15c0-1.51,1.08-2.4,2.4-2.4s2.4.89,2.4,2.4-1.08,2.4-2.4,2.4-2.4-.93-2.4-2.4ZM483.14,41.37v-15.06c0-.29.21-.5.5-.5h2.55c.29,0,.48.19.54.5l.39,1.89h.15c.7-1.76,2.03-2.74,3.81-2.74,1.91,0,3.32,1.07,4.06,2.9h.15c1.14-1.95,2.53-2.9,4.29-2.9,2.9,0,4.66,2.43,4.66,6.36v9.55c0,.29-.21.5-.5.5h-3.09c-.29,0-.5-.21-.5-.5v-9.25c0-1.87-.73-2.92-2.11-2.92-1.51,0-2.3,1.22-2.3,3.46v8.7c0,.29-.21.5-.5.5h-3.09c-.29,0-.5-.21-.5-.5v-9.25c0-1.87-.73-2.92-2.11-2.92-1.51,0-2.3,1.22-2.3,3.46v8.7c0,.29-.21.5-.5.5h-3.09c-.29,0-.5-.21-.5-.5ZM513.31,25.46c-4.1,0-6.99,3.57-6.99,8.49s2.86,8.27,6.99,8.27c3.03,0,5.27-1.55,6.26-4.41.12-.33-.02-.55-.35-.62l-2.86-.64c-.31-.07-.5.06-.58.39-.35,1.49-1.28,2.05-2.47,2.05-1.62,0-2.51-1.33-2.7-3.96h8.86c.29,0,.5-.19.5-.5v-.81c0-4.84-2.72-8.26-6.67-8.26ZM510.65,32.33c.29-2.35,1.27-3.64,2.66-3.64s2.25,1.26,2.49,3.64h-5.15ZM513.39,48.44c.56.83.29,3.02-.25,4.54-.54,1.6-1.55,3.03-2.82,4.16-.58.54-1.22,1.02-1.7,1.02-.17,0-.29-.06-.41-.17-.41-.39-.21-.91.27-1.72,1.33-2.11,2.44-4.99,1.93-5.74-.52-.72-3.61-.68-6.05-.15-.91.17-1.49.17-1.7-.29-.29-.64.58-1.22,1.51-1.72,1.51-.79,3.19-1.22,4.89-1.22s3.77.5,4.33,1.3ZM507.49,52.37c.14.15.23.33.23.52,0,.48-.48,1.12-1.37,1.91-5.2,4.5-13.38,7.05-21.84,7.05-9.66,0-19.7-3.36-25.92-11.06-.5-.62-.81-1.14-.97-1.57-.17-.56-.02-.87.17-1.01.39-.31.95-.12,1.93.68,7.23,5.84,16.78,8.04,25.69,8.04,7.89,0,15.31-1.74,20.14-4.27.81-.43,1.49-.77,1.93-.31Z"/>
      <path class="cls-1" d="M386.45,27.52c.47-1.12,1.2-1.55,2.45-1.55h6.54l-.17.47c-.15.4-.8,2.12-2.7,2.12h-4.32c-1.5,0-2.27.1-2.27.1l.47-1.15ZM407.93,41.31c0,1.6,1.24,2.84,2.84,2.84s2.88-1.24,2.88-2.84-1.28-2.88-2.88-2.88-2.84,1.28-2.84,2.88M348.39,37.83c.26-1.02.33-1.57.33-2.38,0-2.74-1.44-4.42-3.8-4.42-3.47,0-6.15,3.48-6.15,7.97,0,3.06,1.6,4.89,4.27,4.89,2.43,0,4.15-1.41,5-4.1h-1.91c-.83,1.57-1.65,2.22-2.85,2.22-1.34,0-2.08-.99-2.08-2.75,0-.44.02-.76.12-1.41l7.07-.03ZM341.72,36.15c.66-2.14,1.72-3.27,3.04-3.27,1.01,0,1.63.76,1.63,2.04,0,.37-.02.65-.12,1.18l-4.55.05ZM357.68,31.29l-.26,1.15c-.54-.97-1.39-1.41-2.69-1.41-2.26,0-3.96,1.6-3.96,3.74,0,1.39.52,2.04,2.64,3.32q1.27.78,1.55,1.02c.38.29.57.68.57,1.15,0,1.07-.85,1.83-2.05,1.83-1.32,0-2.17-.81-2.17-2.07,0-.21.02-.37.07-.71h-1.56l-.97,4.31h1.56l.31-1.39c.5,1.07,1.51,1.65,2.97,1.65,2.4,0,4.2-1.67,4.2-3.92,0-.97-.35-1.75-1.04-2.33-.4-.34-.75-.57-1.81-1.26q-1.16-.7-1.41-.91c-.33-.29-.5-.63-.5-1.05,0-.94.78-1.6,1.91-1.6s1.81.63,1.81,1.7c0,.18-.02.34-.07.68h1.56l.87-3.92h-1.53ZM360.82,31.29l-.38,1.7h1.72l-3.14,14.01h-1.58l-.4,1.78h5.64l.4-1.78h-1.89l1.18-5.25c.42,1.41,1.39,2.14,2.88,2.14,3.06,0,5.71-3.74,5.71-8.08,0-2.8-1.44-4.79-3.49-4.79-1.2,0-2.26.63-3.16,1.83l.35-1.57h-3.84ZM366.73,32.89c1.13,0,1.84,1.02,1.84,2.69,0,1.36-.42,3.16-1.04,4.42-.66,1.33-1.51,2.01-2.5,2.01-1.13,0-1.84-1.02-1.84-2.62,0-1.33.52-3.45,1.13-4.63.64-1.26,1.46-1.88,2.41-1.88ZM375.03,35.24c.52-1.7,1.25-2.35,2.66-2.35,1.01,0,1.56.42,1.56,1.2,0,.29-.05.52-.17,1.1l-.09.47c-2.12.39-2.95.6-4.03,1.02-2.1.81-3.32,2.35-3.32,4.13s1.23,3.08,2.95,3.08c1.3,0,2.24-.63,3.11-2.04l-.38,1.78h3.73l.4-1.78h-1.63l1.3-5.73c.26-1.2.33-1.65.33-2.27,0-1.78-1.27-2.82-3.42-2.82-1.49,0-2.59.39-3.87,1.33l-.76,2.88h1.63ZM378.43,38.14c-.35,1.54-.45,1.86-.68,2.33-.5.92-1.3,1.46-2.15,1.46-.9,0-1.49-.63-1.49-1.57,0-.99.61-1.83,1.7-2.38.73-.37,1.39-.57,2.85-.89l-.24,1.05ZM388.64,31.29h-3.94l-.4,1.7h1.75l-2,8.86h-1.55l-.4,1.78h5.3l.38-1.78h-1.37l1.13-5.05c.28-1.31.45-1.75.78-2.28.54-.81,1.25-1.25,2-1.25.85,0,1.37.55,1.37,1.44,0,.37-.07.89-.21,1.49l-1.27,5.65h-1.2l-.4,1.78h5.28l.4-1.78h-1.75l1.16-5.05c.4-1.86.47-2.25.47-2.93,0-1.7-1.04-2.85-2.59-2.85-1.3,0-2.38.73-3.37,2.27l.45-2.01ZM399.13,35.24c.52-1.7,1.25-2.35,2.66-2.35,1.01,0,1.56.42,1.56,1.2,0,.29-.05.52-.16,1.1l-.09.47c-2.12.39-2.95.6-4.03,1.02-2.1.81-3.33,2.35-3.33,4.13s1.23,3.08,2.95,3.08c1.3,0,2.24-.63,3.11-2.04l-.38,1.78h3.73l.4-1.78h-1.63l1.3-5.73c.26-1.2.33-1.65.33-2.27,0-1.78-1.27-2.82-3.42-2.82-1.49,0-2.59.39-3.87,1.33l-.75,2.88h1.63ZM402.53,38.14c-.35,1.54-.45,1.86-.68,2.33-.5.92-1.3,1.46-2.15,1.46-.9,0-1.49-.63-1.49-1.57,0-.99.61-1.83,1.7-2.38.73-.37,1.39-.57,2.85-.89l-.24,1.05ZM260.75,31.01h-2.7l-3.77,12.88h2.48l2.62-8.95h.03l2.04,8.95h1.17l4.3-8.71h.03l.36,8.71h2.38l-.54-12.88h-2.62l-3.91,8.1-1.87-8.1ZM279.84,43.89l.27-2.15h-6.02l.42-3.38h4.2l.27-2.15h-4.2l.39-3.04h4.78l.27-2.15h-7.24l-1.63,12.88h8.48ZM282.92,31.01l-1.62,12.88h5.98c3.09,0,5.47-2.78,5.47-6.61,0-2.79-1.36-6.27-5.98-6.27h-3.86ZM285.11,33.16h1.19c2.55,0,3.91,1.81,3.91,4.08s-1.12,4.5-3.86,4.5h-2.31l1.07-8.57ZM296.4,43.89l1.63-12.88h-2.46l-1.63,12.88h2.47ZM300.63,43.89l1.12-2.81h3.6l.36,2.81h2.53l-2.04-13.05h-2.62l-5.68,13.05h2.72ZM302.46,39.24l2.04-5.7h.03l.61,5.7h-2.69ZM308.77,42.83c1.04.75,2.26,1.23,3.94,1.23,2.6,0,3.93-1.87,3.93-3.95,0-3.61-4.27-3.85-4.27-5.7,0-.85.73-1.42,1.63-1.42s2.13.53,2.87,1.13l.34-2.27c-1-.66-2.19-1.02-3.31-1.02-2.35,0-4.08,1.66-4.08,3.89,0,3.38,4.27,3.63,4.27,5.76,0,.85-.66,1.42-1.67,1.42s-2.35-.57-3.28-1.32l-.37,2.25ZM326.52,43.89l.27-2.15h-6.02l.43-3.38h4.2l.27-2.15h-4.2l.39-3.04h4.78l.27-2.15h-7.24l-1.63,12.88h8.48ZM331.87,33.16l-1.36,10.73h2.46l1.36-10.73h3.77l.27-2.15h-9.91l-.27,2.15h3.67Z"/>
      <path class="cls-1" d="M117.45,21.28h-1.99v-1.15h5.23v1.15h-1.99v5.07h-1.25v-5.07ZM126.55,23.77h2.91v-1.14h-2.91v-1.35h3.26v-1.15h-4.52v6.23h4.64v-1.15h-3.38v-1.44ZM136.24,20.13h-1.26v6.23h4.4v-1.15h-3.14v-5.07ZM148.67,25.21h-3.38v-1.44h2.91v-1.14h-2.91v-1.35h3.26v-1.15h-4.52v6.23h4.64v-1.15ZM156.55,21.24c.6,0,1.08.2,1.47.62l.15.16.84-.82-.14-.15c-.56-.63-1.4-.97-2.36-.97-1.87,0-3.29,1.37-3.29,3.18s1.41,3.18,3.28,3.18c.97,0,1.81-.35,2.37-.98l.14-.15-.84-.82-.15.16c-.4.42-.88.63-1.47.63-1.19,0-2.06-.85-2.06-2.01s.87-2.01,2.06-2.01ZM165.08,20.13h-1.26v6.23h1.26v-6.23ZM174.68,24.06l-3.16-3.93h-1v6.23h1.26v-3.93l3.16,3.93h1v-6.23h-1.26v3.93ZM186.57,25.44l.14-.15-.84-.82-.15.16c-.4.42-.88.63-1.47.63-1.19,0-2.06-.85-2.06-2.01s.87-2.01,2.06-2.01c.6,0,1.08.2,1.47.62l.15.16.84-.82-.14-.15c-.56-.63-1.4-.97-2.36-.97-1.87,0-3.29,1.37-3.29,3.18s1.41,3.18,3.28,3.18c.97,0,1.81-.35,2.37-.98ZM197.51,23.25c0,1.81-1.41,3.18-3.29,3.18s-3.3-1.37-3.3-3.18,1.42-3.18,3.3-3.18,3.29,1.37,3.29,3.18ZM196.25,23.25c0-1.17-.85-2.01-2.03-2.01s-2.04.85-2.04,2.01.86,2.01,2.04,2.01,2.03-.85,2.03-2.01ZM120.14,45.46c-2.36,0-4.03-1.96-4.03-4.43s1.7-4.34,4.03-4.34c1.6,0,2.69.76,3.82,1.79l2.43-2.8c-1.84-1.82-3.58-2.55-6.23-2.55-4.71,0-8.02,3.59-8.02,7.99s3.37,7.91,7.89,7.91c2.95,0,4.72-1.06,6.29-2.74l.18-.19-2.45-2.48c-1.22,1.11-2.17,1.84-3.91,1.84ZM131.8,48.77h3.82v-15.39h-3.82v15.39ZM152.53,41.91l-6.54-8.59h-3.43v15.39h3.78v-8.89l6.77,8.89h3.19v-15.39h-3.77s0,8.59,0,8.59ZM167.33,42.76h7v-3.46h-7v-2.46h7.95v-3.46h-11.74v15.39h11.85v-3.46h-8.06v-2.56ZM189.61,39.42l-3.75-6.03h-3.95s0,15.39,0,15.39h3.75v-8.98l3.71,5.63h.38l3.75-5.7v9.05h3.8v-15.39h-3.95l-3.75,6.03ZM207.89,30.11h5.9l1.36,3.33h4.01l-2.89-6.79h-10.79l-2.89,6.79h3.93l1.35-3.33ZM211.23,39.07l1.26,3.07h-3.59l1.26-3.07h-3.59l-4.12,9.68h3.93s1.36-3.33,1.36-3.33h5.9l1.36,3.33h4.01l-4.12-9.68h-3.67ZM209.09,51.42l-3.76,8.82h3.63l1.77-4.32,1.77,4.32h3.72l-3.76-8.82h-3.37Z"/>
      <path class="cls-1" d="M74.8,45.35c0,1.67-1.2,3.04-2.92,3.04s-2.95-1.39-2.95-3.06v-.03c0-1.67,1.2-3.04,2.92-3.04s2.95,1.39,2.95,3.06v.03ZM77.05,45.33v-.03c0-2.77-2.16-5.01-5.17-5.01s-5.19,2.27-5.19,5.04v.03c0,2.77,2.16,5.01,5.17,5.01s5.19-2.27,5.19-5.04M65.13,40.45h-2.14v9.75h2.14v-9.75ZM59.15,45.35c0,1.73-1.18,2.91-2.94,2.91h-1.66v-5.88h1.66c1.75,0,2.94,1.21,2.94,2.94v.03ZM61.4,45.33v-.03c0-2.74-2.12-4.85-5.18-4.85h-3.8v9.75h3.8c3.06,0,5.18-2.13,5.18-4.87M50.76,45.95v-5.5h-2.14v5.58c0,1.55-.79,2.34-2.1,2.34s-2.1-.82-2.1-2.41v-5.51h-2.14v5.57c0,2.87,1.6,4.33,4.22,4.33s4.28-1.45,4.28-4.4M40.69,42.43v-1.98h-8.08v1.98h2.97v7.77h2.14v-7.77h2.97ZM31.48,47.32v-.03c0-1.7-1.11-2.41-3.09-2.92-1.68-.43-2.1-.64-2.1-1.28v-.03c0-.47.43-.85,1.25-.85s1.67.36,2.53.96l1.11-1.62c-.99-.79-2.2-1.24-3.62-1.24-1.99,0-3.41,1.17-3.41,2.94v.03c0,1.94,1.27,2.48,3.23,2.98,1.63.42,1.96.7,1.96,1.24v.03c0,.57-.53.92-1.41.92-1.11,0-2.03-.46-2.91-1.18l-1.27,1.52c1.17,1.04,2.66,1.56,4.14,1.56,2.1,0,3.58-1.09,3.58-3.02M74.8,33.36c0,1.67-1.2,3.04-2.92,3.04s-2.95-1.39-2.95-3.06v-.03c0-1.67,1.2-3.04,2.92-3.04s2.95,1.39,2.95,3.06v.03ZM77.05,33.34v-.03c0-2.77-2.16-5.01-5.17-5.01s-5.19,2.27-5.19,5.04v.03c0,2.77,2.16,5.01,5.17,5.01s5.19-2.27,5.19-5.04M63.24,31.82c0,.82-.6,1.38-1.64,1.38h-2.17v-2.8h2.13c1.04,0,1.68.47,1.68,1.39v.03ZM65.7,38.21l-2.38-3.48c1.24-.46,2.09-1.45,2.09-3.02v-.03c0-2.01-1.38-3.22-3.68-3.22h-4.46v9.75h2.14v-3.12h1.68l2.09,3.12h2.51ZM53.5,31.9c0,.84-.63,1.48-1.7,1.48h-1.7v-2.98h1.66c1.07,0,1.74.52,1.74,1.48v.03ZM55.67,31.86v-.03c0-1.99-1.41-3.37-3.73-3.37h-3.98v9.75h2.14v-2.92h1.63c2.19,0,3.94-1.17,3.94-3.43M42.61,34.13h-2.59l1.29-3.16,1.3,3.16ZM46.51,38.21l-4.18-9.82h-1.98l-4.18,9.82h2.19l.89-2.19h4.12l.89,2.19h2.24ZM34.71,28.46h-2.14v9.75h2.14v-9.75ZM28.59,33.36c0,1.73-1.18,2.91-2.94,2.91h-1.66v-5.88h1.66c1.75,0,2.94,1.21,2.94,2.94v.03ZM30.83,33.34v-.03c0-2.74-2.12-4.85-5.18-4.85h-3.8v9.75h3.8c3.06,0,5.18-2.13,5.18-4.87M20.04,38.21v-1.91h-5.29v-2.05h4.6v-1.91h-4.6v-1.98h5.22v-1.91h-7.35v9.75h7.42ZM10.71,38.21v-9.75h-2.31l-2.56,4.12-2.56-4.12H.97v9.75h2.1v-6.32l2.72,4.12h.06l2.74-4.16v6.36h2.13ZM49.37,16.41v1.98h2.97v7.79h2.15v-7.79h2.97v-1.98h-8.09ZM65.09,16.41v3.87h-3.96v-3.87h-2.15v9.77h2.15v-3.92h3.96v3.92h2.15v-9.77h-2.15ZM69,16.41v9.77h7.44v-1.91h-5.3v-2.05h4.6v-1.91h-4.6v-1.98h5.23v-1.91h-7.37ZM6.48,45.23l3.29-3.29c-.15-.26-.35-.51-.6-.76-1.43-1.43-3.01-1.18-4.14-.06l-4.1,4.1c-1.13,1.13-1.38,2.7.05,4.14,1.43,1.43,3.01,1.18,4.14.06l.81-.81c-.72-1.21-.39-2.45.54-3.38M12.03,45.23l3.29-3.29c-.15-.26-.35-.51-.6-.76-1.43-1.43-3.01-1.18-4.14-.06l-.81.82c.72,1.21.39,2.45-.54,3.38l-3.29,3.29c.15.25.35.51.6.76,1.43,1.43,3.01,1.18,4.14.06l.81-.81c-.72-1.21-.39-2.45.54-3.38M20.27,41.18c-1.43-1.43-3.01-1.18-4.14-.06l-.81.82c.72,1.21.39,2.45-.54,3.38l-3.29,3.29c.15.25.35.51.6.76,1.43,1.43,3.01,1.18,4.14.06l4.1-4.1c1.12-1.13,1.38-2.7-.06-4.14"/>
    </g>
  </g>
</svg>