<?xml version="1.0" encoding="UTF-8"?>
<svg id="Capa_2" data-name="Capa 2" xmlns="http://www.w3.org/2000/svg" viewBox="0 0 2846.19 266.95">
  <defs>
    <style>
      .cls-1 {
        fill: #fff;
      }
    </style>
  </defs>
  <g id="Capa_1-2" data-name="Capa 1">
    <g>
      <path class="cls-1" d="M108.73,206.73v-14.63h-.49c-7.56,12.43-21.21,19.02-40.47,19.02C26.82,211.12,0,179.67,0,138.72s27.55-71.92,67.04-71.92c15.6,0,28.28,4.63,39.74,16.09V26.33h40.47v180.4h-38.52ZM108.97,138.47c0-18.77-14.38-33.89-34.37-33.89s-34.13,14.14-34.13,33.89,14.38,34.86,33.89,34.86,34.62-14.87,34.62-34.86Z"/>
      <path class="cls-1" d="M176.5,57.05v-30.72h40.47v30.72h-40.47ZM176.5,206.73V71.43h40.47v135.3h-40.47Z"/>
      <path class="cls-1" d="M245.98,206.73V71.43h38.03v14.38h.49c7.07-14.38,18.28-19.02,33.89-19.02v40.71c-24.14.24-31.94,9.26-31.94,24.62v74.6h-40.47Z"/>
      <path class="cls-1" d="M339.84,57.05v-30.72h40.47v30.72h-40.47ZM339.84,206.73V71.43h40.47v135.3h-40.47Z"/>
      <path class="cls-1" d="M509.02,190.89c-6.09,12.92-21.21,20.24-37.79,20.24-39.49,0-68.02-30.47-68.02-71.19s29.01-72.89,68.02-72.89c17.55,0,30.96,6.58,37.54,17.07h.49v-12.68h40.47v120.92c0,18.28-2.44,32.18-7.31,41.44-9.75,18.77-36.32,33.16-70.21,33.16-38.27,0-63.14-21.7-66.55-47.54h46.81c4.63,10,13.65,13.41,23.65,13.41,20.48,0,32.91-13.41,32.91-38.03v-3.9ZM509.27,139.69c0-19.75-13.41-34.86-33.16-34.86-18.04,0-32.42,15.12-32.42,33.64s12.92,34.86,32.42,34.86,33.16-14.14,33.16-33.64Z"/>
      <path class="cls-1" d="M580.94,57.05v-30.72h40.47v30.72h-40.47ZM580.94,206.73V71.43h40.47v135.3h-40.47Z"/>
      <path class="cls-1" d="M753.05,206.73v-14.63h-.49c-7.56,12.43-21.21,19.02-40.47,19.02-40.96,0-67.77-31.45-67.77-72.41s27.55-71.92,67.04-71.92c15.6,0,28.28,4.63,39.74,16.09V26.33h40.47v180.4h-38.52ZM753.3,138.47c0-18.77-14.38-33.89-34.37-33.89s-34.13,14.14-34.13,33.89,14.38,34.86,33.89,34.86,34.62-14.87,34.62-34.86Z"/>
      <path class="cls-1" d="M922.48,206.73v-14.63h-.49c-5.85,11.95-21.94,19.26-39.74,19.26-39.98,0-67.77-31.45-67.77-72.41s29.01-72.16,67.77-72.16c16.58,0,31.94,6.58,39.74,19.02h.49v-14.38h40.47v135.3h-40.47ZM922.48,138.96c0-19.02-15.36-34.38-34.37-34.38s-33.16,15.36-33.16,34.86,14.87,34.13,33.64,34.13,33.89-15.12,33.89-34.62Z"/>
      <path class="cls-1" d="M1067.78,251.84V71.43h38.03v14.87h.73c10.73-13.41,25.6-19.5,42.42-19.5,38.52,0,65.82,31.45,65.82,73.62,0,38.52-27.06,70.94-65.82,70.94-15.85,0-29.74-4.88-40.71-16.82v57.29h-40.47ZM1174.31,139.2c0-19.02-14.63-34.62-34.13-34.62s-33.64,15.12-33.64,34.62,14.63,34.38,33.89,34.38,33.89-15.6,33.89-34.38Z"/>
      <path class="cls-1" d="M1304.25,210.88c-41.2,0-72.89-30.47-72.89-71.92s32.42-71.92,72.89-71.92,72.89,30.47,72.89,71.43-32.18,72.41-72.89,72.41ZM1336.67,138.96c0-18.04-13.65-34.13-32.67-34.13-17.8,0-32.18,15.6-32.18,34.13s14.14,34.13,32.42,34.13,32.42-16.09,32.42-34.13Z"/>
      <path class="cls-1" d="M1399.81,206.73V71.43h38.03v14.38h.49c7.07-14.38,18.28-19.02,33.89-19.02v40.71c-24.14.24-31.94,9.26-31.94,24.62v74.6h-40.47Z"/>
      <path class="cls-1" d="M1565.59,206.73V26.33h60.95c19.26-.24,33.64,2.44,43.15,6.83,19.5,9.02,31.69,29.74,31.69,54.12,0,33.4-18.53,62.9-70.21,62.9h-21.45v56.56h-44.13ZM1629.46,109.71c18.53,0,27.79-6.34,27.79-21.7s-9.02-21.21-29.5-21.21h-18.04v42.91h19.75Z"/>
      <path class="cls-1" d="M1815.71,206.73v-14.63h-.49c-5.85,11.95-21.94,19.26-39.74,19.26-39.98,0-67.77-31.45-67.77-72.41s29.01-72.16,67.77-72.16c16.58,0,31.94,6.58,39.74,19.02h.49v-14.38h40.47v135.3h-40.47ZM1815.71,138.96c0-19.02-15.36-34.38-34.38-34.38s-33.16,15.36-33.16,34.86,14.87,34.13,33.64,34.13,33.89-15.12,33.89-34.62Z"/>
      <path class="cls-1" d="M1981.24,123.6c-5.85-12.68-16.33-19.02-30.23-19.02-18.53,0-31.21,15.36-31.21,34.38s13.41,34.37,32.18,34.37c13.65,0,23.16-6.34,29.25-18.04h41.2c-8.04,33.89-37.06,55.83-71.67,55.83-39.98,0-71.67-32.42-71.67-72.41s31.94-71.92,70.94-71.92c35.59,0,64.6,22.43,72.16,56.8h-40.96Z"/>
      <path class="cls-1" d="M2111.18,210.88c-41.2,0-72.89-30.47-72.89-71.92s32.42-71.92,72.89-71.92,72.89,30.47,72.89,71.43-32.18,72.41-72.89,72.41ZM2143.6,138.96c0-18.04-13.65-34.13-32.67-34.13-17.8,0-32.18,15.6-32.18,34.13s14.14,34.13,32.42,34.13,32.42-16.09,32.42-34.13Z"/>
      <path class="cls-1" d="M2285.24,206.73V26.33h46.08v139.94h53.39v40.47h-99.47Z"/>
      <path class="cls-1" d="M2433.71,151.39c2.19,15.36,15.12,25.6,31.69,25.6,10.97,0,18.04-4.14,24.62-12.68h41.44c-12.92,29.5-37.54,46.81-66.07,46.81-39.01,0-71.67-31.45-71.67-71.67s31.21-72.65,70.94-72.65,71.43,31.94,71.43,73.87c0,3.9-.24,7.07-.97,10.73h-101.42ZM2495.63,124.09c-3.17-13.9-15.36-23.16-30.96-23.16-14.63,0-27.3,8.78-30.47,23.16h61.43Z"/>
      <path class="cls-1" d="M2625.08,210.88c-41.2,0-72.89-30.47-72.89-71.92s32.42-71.92,72.89-71.92,72.89,30.47,72.89,71.43-32.18,72.41-72.89,72.41ZM2657.5,138.96c0-18.04-13.65-34.13-32.67-34.13-17.8,0-32.18,15.6-32.18,34.13s14.14,34.13,32.42,34.13,32.42-16.09,32.42-34.13ZM2605.82,55.34l-11.46-23.89,58.51-31.45,12.92,28.77-59.97,26.57Z"/>
      <path class="cls-1" d="M2805.72,206.73v-75.09c0-18.28-6.34-26.82-21.21-26.82-16.33,0-23.16,9.02-23.16,27.3v74.6h-40.47V71.43h37.79v14.38h.49c8.53-13.9,20.48-19.02,36.81-19.02,24.38,0,50.22,13.65,50.22,53.63v86.3h-40.47Z"/>
    </g>
  </g>
</svg>