<?xml version="1.0" encoding="UTF-8"?>
<svg id="Capa_2" data-name="Capa 2" xmlns="http://www.w3.org/2000/svg" viewBox="0 0 32.76 46.08">
  <defs>
    <style>
      .cls-1 {
        fill: #fff;
      }
    </style>
  </defs>
  <g id="Capa_1-2" data-name="Capa 1">
    <path class="cls-1" d="M11.46,26.58v-8.28h.78c5.22,0,6.72-1.5,6.72-4.44,0-2.34-1.2-3.9-3.18-3.9-2.16,0-3.36,1.2-3.42,3.84H1.2C1.2,5.52,7.56,0,16.38,0c7.68,0,13.92,4.86,13.92,12.12,0,4.38-2.1,7.32-5.88,9.3,5.52,1.92,8.34,5.64,8.34,10.74,0,7.92-7.8,13.92-16.44,13.92-6.78,0-15.84-3.36-16.32-14.1h11.46c.66,2.7,2.34,4.14,5.16,4.14,3.06,0,4.8-1.92,4.8-4.98s-1.74-4.56-7.26-4.56h-2.7Z"/>
  </g>
</svg>