<?xml version="1.0" encoding="UTF-8"?>
<svg id="Capa_2" data-name="Capa 2" xmlns="http://www.w3.org/2000/svg" viewBox="0 0 3172.69 144.29">
  <defs>
    <style>
      .cls-1 {
        fill: #fff;
      }
    </style>
  </defs>
  <g id="Capa_1-2" data-name="Capa 1">
    <g>
      <path class="cls-1" d="M46.37,45.26c-1.12-7.4-4.19-10.06-9.36-10.06-4.89,0-9.08,3.49-9.08,8.1,0,6.15,5.59,8.94,16.9,13.83,22.77,9.78,28.49,18.02,28.49,31.57,0,19.97-13.69,31.71-36.04,31.71S0,108.67,0,86.46v-2.23h26.26c.14,8.52,4.33,14.11,10.9,14.11,5.45,0,9.92-4.33,9.92-9.92,0-8.24-11.45-11.87-20.81-15.64C9.36,65.93,1.68,56.99,1.68,43.58,1.68,25.98,18.72,13.13,37.71,13.13c6.84,0,12.85,1.54,18.3,4.33,11.03,5.73,16.34,13.97,16.48,27.8h-26.12Z"/>
      <path class="cls-1" d="M84.93,32.69V15.09h23.19v17.6h-23.19ZM84.93,118.45V40.93h23.19v77.52h-23.19Z"/>
      <path class="cls-1" d="M130.19,118.45v-59.92h-11.45v-17.6h11.45V15.09h23.19v25.84h11.17v17.6h-11.17v59.92h-23.19Z"/>
      <path class="cls-1" d="M224.47,118.45v-8.24h-.28c-3.35,7.12-9.5,10.76-19.97,10.76-16.34,0-29.89-9.78-29.89-31.85v-48.19h23.19v43.44c0,10.2,3.63,14.95,12.43,14.95s13.27-5.87,13.27-15.36v-43.02h23.19v77.52h-21.93ZM204.36,31.71l-6.56-13.69L231.32,0l7.4,16.48-34.36,15.23Z"/>
      <path class="cls-1" d="M321.41,118.45v-8.38h-.28c-3.35,6.84-12.57,11.04-22.77,11.04-22.91,0-38.83-18.02-38.83-41.48s16.62-41.35,38.83-41.35c9.5,0,18.3,3.77,22.77,10.9h.28v-8.24h23.19v77.52h-23.19ZM321.41,79.62c0-10.9-8.8-19.69-19.69-19.69s-19,8.8-19,19.97,8.52,19.55,19.28,19.55,19.42-8.66,19.42-19.83Z"/>
      <path class="cls-1" d="M409.28,118.45v-59.92h-11.45v-17.6h11.45V15.09h23.19v25.84h11.17v17.6h-11.17v59.92h-23.19Z"/>
      <path class="cls-1" d="M503.56,118.45v-8.24h-.28c-3.35,7.12-9.5,10.76-19.97,10.76-16.34,0-29.89-9.78-29.89-31.85v-48.19h23.19v43.44c0,10.2,3.63,14.95,12.43,14.95s13.27-5.87,13.27-15.36v-43.02h23.19v77.52h-21.93Z"/>
      <path class="cls-1" d="M585.28,118.45V40.93h21.79v8.24h.28c4.05-8.24,10.48-10.9,19.42-10.9v23.33c-13.83.14-18.3,5.31-18.3,14.11v42.74h-23.19Z"/>
      <path class="cls-1" d="M673.14,120.82c-23.61,0-41.76-17.46-41.76-41.21s18.58-41.21,41.76-41.21,41.76,17.46,41.76,40.93-18.44,41.49-41.76,41.49ZM691.72,79.62c0-10.34-7.82-19.56-18.72-19.56-10.2,0-18.44,8.94-18.44,19.56s8.1,19.55,18.58,19.55,18.58-9.22,18.58-19.55Z"/>
      <path class="cls-1" d="M761.01,62.72c-.14-4.47-3.35-5.87-7.12-5.87s-6.7,2.23-6.7,5.17c0,4.19,3.77,6.29,14.53,9.08,18.44,4.89,24.44,12.29,24.44,23.61,0,16.2-13.97,26.4-31.57,26.4s-29.89-9.92-31.57-25.7h23.05c.7,4.89,4.19,7.12,8.8,7.12,4.05,0,8.1-2.38,8.1-6.01,0-4.33-2.65-6.56-14.25-10.2-19.56-6.01-24.72-13.69-24.72-22.77,0-15.36,14.39-25.28,30.03-25.28,16.76,0,28.63,9.22,29.75,24.44h-22.77Z"/>
      <path class="cls-1" d="M802.36,118.45v-59.92h-11.45v-17.6h11.45V15.09h23.19v25.84h11.17v17.6h-11.17v59.92h-23.19Z"/>
      <path class="cls-1" d="M846.64,118.45V40.93h21.79v8.24h.28c4.05-8.24,10.48-10.9,19.42-10.9v23.33c-13.83.14-18.3,5.31-18.3,14.11v42.74h-23.19Z"/>
      <path class="cls-1" d="M934.5,120.82c-23.61,0-41.76-17.46-41.76-41.21s18.58-41.21,41.76-41.21,41.76,17.46,41.76,40.93-18.44,41.49-41.76,41.49ZM953.07,79.62c0-10.34-7.82-19.56-18.72-19.56-10.2,0-18.44,8.94-18.44,19.56s8.1,19.55,18.58,19.55,18.58-9.22,18.58-19.55Z"/>
      <path class="cls-1" d="M1051.27,86.74c1.26,8.8,8.66,14.67,18.16,14.67,6.29,0,10.34-2.37,14.11-7.26h23.75c-7.4,16.9-21.51,26.82-37.85,26.82-22.35,0-41.07-18.02-41.07-41.07s17.88-41.62,40.65-41.62,40.93,18.3,40.93,42.32c0,2.23-.14,4.05-.56,6.15h-58.11ZM1086.75,71.1c-1.82-7.96-8.8-13.27-17.74-13.27-8.38,0-15.64,5.03-17.46,13.27h35.2Z"/>
      <path class="cls-1" d="M1171.4,118.45v-43.02c0-10.48-3.63-15.36-12.15-15.36-9.36,0-13.27,5.17-13.27,15.64v42.74h-23.19V40.93h21.65v8.24h.28c4.89-7.96,11.73-10.9,21.09-10.9,13.97,0,28.77,7.82,28.77,30.73v49.45h-23.19Z"/>
      <path class="cls-1" d="M1254.24,118.45V15.09h23.19v103.36h-23.19Z"/>
      <path class="cls-1" d="M1352.44,118.45v-8.38h-.28c-3.35,6.84-12.57,11.04-22.77,11.04-22.91,0-38.83-18.02-38.83-41.48s16.62-41.35,38.83-41.35c9.5,0,18.3,3.77,22.77,10.9h.28v-8.24h23.19v77.52h-23.19ZM1352.44,79.62c0-10.9-8.8-19.69-19.69-19.69s-19,8.8-19,19.97,8.52,19.55,19.28,19.55,19.42-8.66,19.42-19.83Z"/>
      <path class="cls-1" d="M1531.51,118.45v-41.76c0-12.15-3.91-16.62-11.87-16.62-8.8,0-12.85,5.31-12.85,15.5v42.88h-23.19v-42.74c0-10.06-3.63-15.64-11.59-15.64-9.08,0-13.13,5.87-13.13,16.62v41.76h-23.19V40.93h21.65v8.24h.28c4.05-7.26,11.45-10.9,21.37-10.9s17.46,5.03,22.35,13.83c5.59-8.8,13.97-13.83,24.58-13.83,17.32,0,28.77,10.62,28.77,32.27v47.91h-23.19Z"/>
      <path class="cls-1" d="M1629.29,118.45v-8.38h-.28c-3.35,6.84-12.57,11.04-22.77,11.04-22.91,0-38.83-18.02-38.83-41.48s16.62-41.35,38.83-41.35c9.5,0,18.3,3.77,22.77,10.9h.28v-8.24h23.19v77.52h-23.19ZM1629.29,79.62c0-10.9-8.8-19.69-19.69-19.69s-19,8.8-19,19.97,8.52,19.55,19.28,19.55,19.41-8.66,19.41-19.83Z"/>
      <path class="cls-1" d="M1669.25,118.45V40.93h21.79v8.24h.28c4.05-8.24,10.48-10.9,19.42-10.9v23.33c-13.83.14-18.3,5.31-18.3,14.11v42.74h-23.19Z"/>
      <path class="cls-1" d="M1773.73,70.82c-3.35-7.26-9.36-10.9-17.32-10.9-10.62,0-17.88,8.8-17.88,19.69s7.68,19.69,18.44,19.69c7.82,0,13.27-3.63,16.76-10.34h23.61c-4.61,19.42-21.23,31.99-41.07,31.99-22.91,0-41.07-18.58-41.07-41.48s18.3-41.21,40.65-41.21c20.39,0,37.01,12.85,41.34,32.55h-23.47Z"/>
      <path class="cls-1" d="M1868.3,118.45v-8.38h-.28c-3.35,6.84-12.57,11.04-22.77,11.04-22.91,0-38.83-18.02-38.83-41.48s16.62-41.35,38.83-41.35c9.5,0,18.3,3.77,22.77,10.9h.28v-8.24h23.19v77.52h-23.19ZM1868.3,79.62c0-10.9-8.8-19.69-19.69-19.69s-19,8.8-19,19.97,8.52,19.55,19.28,19.55,19.42-8.66,19.42-19.83Z"/>
      <path class="cls-1" d="M1959.79,144.29l12.29-29.75-28.77-73.61h24.72l15.5,44.98h.28l14.81-44.98h24.58l-38.83,103.36h-24.58Z"/>
      <path class="cls-1" d="M2074.89,144.29V40.93h21.79v8.52h.42c6.15-7.68,14.67-11.17,24.3-11.17,22.07,0,37.71,18.02,37.71,42.18,0,22.07-15.5,40.65-37.71,40.65-9.08,0-17.04-2.79-23.33-9.64v32.82h-23.19ZM2135.93,79.76c0-10.9-8.38-19.83-19.56-19.83s-19.28,8.66-19.28,19.83,8.38,19.69,19.42,19.69,19.42-8.94,19.42-19.69Z"/>
      <path class="cls-1" d="M2222.12,118.45v-8.24h-.28c-3.35,7.12-9.5,10.76-19.97,10.76-16.34,0-29.89-9.78-29.89-31.85v-48.19h23.19v43.44c0,10.2,3.63,14.95,12.43,14.95s13.27-5.87,13.27-15.36v-43.02h23.19v77.52h-21.93Z"/>
      <path class="cls-1" d="M2261.52,118.45V15.09h23.19v103.36h-23.19Z"/>
      <path class="cls-1" d="M2334.43,62.72c-.14-4.47-3.35-5.87-7.12-5.87s-6.71,2.23-6.71,5.17c0,4.19,3.77,6.29,14.53,9.08,18.44,4.89,24.44,12.29,24.44,23.61,0,16.2-13.97,26.4-31.57,26.4s-29.89-9.92-31.57-25.7h23.05c.7,4.89,4.19,7.12,8.8,7.12,4.05,0,8.1-2.38,8.1-6.01,0-4.33-2.65-6.56-14.25-10.2-19.55-6.01-24.72-13.69-24.72-22.77,0-15.36,14.39-25.28,30.03-25.28,16.76,0,28.63,9.22,29.75,24.44h-22.77Z"/>
      <path class="cls-1" d="M2429.42,118.45v-8.38h-.28c-3.35,6.84-12.57,11.04-22.77,11.04-22.91,0-38.83-18.02-38.83-41.48s16.62-41.35,38.83-41.35c9.5,0,18.3,3.77,22.77,10.9h.28v-8.24h23.19v77.52h-23.19ZM2429.42,79.62c0-10.9-8.8-19.69-19.69-19.69s-19,8.8-19,19.97,8.52,19.55,19.28,19.55,19.42-8.66,19.42-19.83Z"/>
      <path class="cls-1" d="M2567.42,70.82c-3.35-7.26-9.36-10.9-17.32-10.9-10.62,0-17.88,8.8-17.88,19.69s7.68,19.69,18.44,19.69c7.82,0,13.27-3.63,16.76-10.34h23.61c-4.61,19.42-21.23,31.99-41.07,31.99-22.91,0-41.07-18.58-41.07-41.48s18.3-41.21,40.65-41.21c20.39,0,37.01,12.85,41.34,32.55h-23.47Z"/>
      <path class="cls-1" d="M2641.88,120.82c-23.61,0-41.76-17.46-41.76-41.21s18.58-41.21,41.76-41.21,41.76,17.46,41.76,40.93-18.44,41.49-41.76,41.49ZM2660.46,79.62c0-10.34-7.82-19.56-18.72-19.56-10.2,0-18.44,8.94-18.44,19.56s8.1,19.55,18.58,19.55,18.58-9.22,18.58-19.55Z"/>
      <path class="cls-1" d="M2745.38,118.45v-43.02c0-10.48-3.63-15.36-12.15-15.36-9.36,0-13.27,5.17-13.27,15.64v42.74h-23.19V40.93h21.65v8.24h.28c4.89-7.96,11.73-10.9,21.09-10.9,13.97,0,28.77,7.82,28.77,30.73v49.45h-23.19Z"/>
      <path class="cls-1" d="M2789.67,118.45v-59.92h-11.45v-17.6h11.45V15.09h23.19v25.84h11.17v17.6h-11.17v59.92h-23.19Z"/>
      <path class="cls-1" d="M2882.7,118.45v-43.02c0-10.48-3.63-15.36-12.15-15.36-9.36,0-13.27,5.17-13.27,15.64v42.74h-23.19V40.93h21.65v8.24h.28c4.89-7.96,11.73-10.9,21.09-10.9,13.97,0,28.77,7.82,28.77,30.73v49.45h-23.19Z"/>
      <path class="cls-1" d="M2969.44,118.45v-8.24h-.28c-3.35,7.12-9.5,10.76-19.97,10.76-16.34,0-29.89-9.78-29.89-31.85v-48.19h23.19v43.44c0,10.2,3.63,14.95,12.43,14.95s13.27-5.87,13.27-15.36v-43.02h23.19v77.52h-21.93Z"/>
      <path class="cls-1" d="M3066.38,118.45v-8.38h-.28c-3.35,6.84-12.57,11.04-22.77,11.04-22.91,0-38.83-18.02-38.83-41.48s16.62-41.35,38.83-41.35c9.5,0,18.3,3.77,22.77,10.9h.28v-8.24h23.19v77.52h-23.19ZM3066.38,79.62c0-10.9-8.8-19.69-19.7-19.69s-19,8.8-19,19.97,8.52,19.55,19.28,19.55,19.42-8.66,19.42-19.83Z"/>
      <path class="cls-1" d="M3106.34,118.45V40.93h21.79v8.24h.28c4.05-8.24,10.48-10.9,19.42-10.9v23.33c-13.83.14-18.3,5.31-18.3,14.11v42.74h-23.19Z"/>
      <path class="cls-1" d="M3148.52,118.45v-23.75h24.17v23.75h-24.17Z"/>
    </g>
  </g>
</svg>