<?xml version="1.0" encoding="UTF-8"?>
<svg id="Capa_2" data-name="Capa 2" xmlns="http://www.w3.org/2000/svg" viewBox="0 0 1011.71 187.23">
  <defs>
    <style>
      .cls-1 {
        fill: #fff;
      }
    </style>
  </defs>
  <g id="Capa_1-2" data-name="Capa 1">
    <g>
      <path class="cls-1" d="M137.99,71.92c-7.8-19.75-24.87-31.45-43.64-31.45-28.77,0-48.27,24.62-48.27,52.66s19.99,53.63,48.51,53.63c18.28,0,33.89-10.24,43.39-30.47h48.27c-11.21,43.39-48.51,70.94-91.18,70.94-25.11,0-48.76-8.78-67.29-27.06C8.29,141.15,0,118.24,0,90.93,0,43.15,41.2,0,92.88,0c24.87,0,44.86,6.83,62.9,22.19,17.07,14.63,27.3,31.21,30.47,49.73h-48.27Z"/>
      <path class="cls-1" d="M296.44,183.82l-41.69-58.27h-.49v58.27h-44.13V3.41h59c18.77,0,33.16,2.44,42.66,6.58,19.5,8.78,33.16,29.99,33.16,55.58,0,28.52-17.06,51.93-44.86,56.8l49,61.44h-52.66ZM271.33,94.1c18.28,0,29.5-8.53,29.5-25.84,0-15.6-11.7-24.38-29.01-24.38h-17.55v50.22h17.06Z"/>
      <path class="cls-1" d="M369.33,183.82V3.41h100.2v40.47h-56.07v28.04h54.36v40.47h-54.36v30.96h56.07v40.47h-100.2Z"/>
      <path class="cls-1" d="M614.34,183.82l-8.78-26.09h-62.65l-9.51,26.09h-49.49L556.32,3.41h36.32l71.67,180.4h-49.98ZM574.85,59.73l-.73-.24-18.53,61.68h37.79l-18.53-61.44Z"/>
      <path class="cls-1" d="M773.77,183.82V43.88h-35.59V3.41h117.02v40.47h-35.35v139.94h-46.08Z"/>
      <path class="cls-1" d="M965.63,3.41h46.08v110.44c0,18.77-2.93,32.91-9.02,42.66-11.95,19.26-32.18,30.72-59.48,30.72-15.12,0-28.04-2.93-38.52-9.02-21.21-12.43-31.45-29.25-31.45-64.12V3.41h46.08v109.95c0,22.43,7.07,33.4,23.4,33.4s22.92-7.8,22.92-33.16V3.41Z"/>
    </g>
  </g>
</svg>