<?xml version="1.0" encoding="UTF-8"?>
<svg id="Capa_2" data-name="Capa 2" xmlns="http://www.w3.org/2000/svg" viewBox="0 0 2164.43 139.82">
  <defs>
    <style>
      .cls-1 {
        fill: #fff;
      }
    </style>
  </defs>
  <g id="Capa_1-2" data-name="Capa 1">
    <g>
      <path class="cls-1" d="M46.37,32.13c-1.12-7.4-4.19-10.06-9.36-10.06-4.89,0-9.08,3.49-9.08,8.1,0,6.15,5.59,8.94,16.9,13.83,22.77,9.78,28.49,18.02,28.49,31.57,0,19.97-13.69,31.71-36.04,31.71S0,95.54,0,73.33v-2.23h26.26c.14,8.52,4.33,14.11,10.9,14.11,5.45,0,9.92-4.33,9.92-9.92,0-8.24-11.45-11.87-20.81-15.64C9.36,52.8,1.68,43.86,1.68,30.45,1.68,12.85,18.72,0,37.71,0c6.84,0,12.85,1.54,18.3,4.33,11.03,5.73,16.34,13.97,16.48,27.8h-26.12Z"/>
      <path class="cls-1" d="M105.74,73.61c1.26,8.8,8.66,14.67,18.16,14.67,6.29,0,10.34-2.37,14.11-7.26h23.75c-7.4,16.9-21.51,26.82-37.85,26.82-22.35,0-41.07-18.02-41.07-41.07s17.88-41.62,40.65-41.62,40.93,18.3,40.93,42.32c0,2.23-.14,4.05-.56,6.15h-58.11ZM141.22,57.97c-1.82-7.96-8.8-13.27-17.74-13.27-8.38,0-15.64,5.03-17.46,13.27h35.2Z"/>
      <path class="cls-1" d="M177.26,105.32V1.96h23.19v103.36h-23.19Z"/>
      <path class="cls-1" d="M235.93,73.61c1.26,8.8,8.66,14.67,18.16,14.67,6.29,0,10.34-2.37,14.11-7.26h23.75c-7.4,16.9-21.51,26.82-37.85,26.82-22.35,0-41.07-18.02-41.07-41.07s17.88-41.62,40.65-41.62,40.93,18.3,40.93,42.32c0,2.23-.14,4.05-.56,6.15h-58.11ZM271.41,57.97c-1.82-7.96-8.8-13.27-17.74-13.27-8.38,0-15.64,5.03-17.46,13.27h35.2Z"/>
      <path class="cls-1" d="M362.2,57.69c-3.35-7.26-9.36-10.9-17.32-10.9-10.62,0-17.88,8.8-17.88,19.69s7.68,19.69,18.44,19.69c7.82,0,13.27-3.63,16.76-10.34h23.61c-4.61,19.42-21.23,31.99-41.07,31.99-22.91,0-41.07-18.58-41.07-41.48s18.3-41.21,40.65-41.21c20.39,0,37.02,12.85,41.35,32.55h-23.47Z"/>
      <path class="cls-1" d="M453.28,57.69c-3.35-7.26-9.36-10.9-17.32-10.9-10.62,0-17.88,8.8-17.88,19.69s7.68,19.69,18.44,19.69c7.82,0,13.27-3.63,16.76-10.34h23.61c-4.61,19.42-21.23,31.99-41.07,31.99-22.91,0-41.07-18.58-41.07-41.48s18.3-41.21,40.65-41.21c20.39,0,37.02,12.85,41.35,32.55h-23.47Z"/>
      <path class="cls-1" d="M489.6,19.56V1.96h23.19v17.6h-23.19ZM489.6,105.32V27.8h23.19v77.52h-23.19Z"/>
      <path class="cls-1" d="M567.68,107.69c-23.61,0-41.76-17.46-41.76-41.21s18.58-41.21,41.76-41.21,41.76,17.46,41.76,40.93-18.44,41.49-41.76,41.49ZM586.26,66.49c0-10.34-7.82-19.56-18.72-19.56-10.2,0-18.44,8.94-18.44,19.56s8.1,19.55,18.58,19.55,18.58-9.22,18.58-19.55Z"/>
      <path class="cls-1" d="M671.19,105.32v-43.02c0-10.48-3.63-15.36-12.15-15.36-9.36,0-13.27,5.17-13.27,15.64v42.74h-23.19V27.8h21.65v8.24h.28c4.89-7.96,11.73-10.9,21.09-10.9,13.97,0,28.77,7.82,28.77,30.73v49.45h-23.19Z"/>
      <path class="cls-1" d="M769.11,105.32v-8.38h-.28c-3.35,6.84-12.57,11.04-22.77,11.04-22.91,0-38.83-18.02-38.83-41.48s16.62-41.35,38.83-41.35c9.5,0,18.3,3.77,22.77,10.9h.28v-8.24h23.19v77.52h-23.19ZM769.11,66.49c0-10.9-8.8-19.69-19.69-19.69s-19,8.8-19,19.97,8.52,19.55,19.28,19.55,19.42-8.66,19.42-19.83Z"/>
      <path class="cls-1" d="M856.97,105.32v-59.92h-11.45v-17.6h11.45V1.96h23.19v25.84h11.17v17.6h-11.17v59.92h-23.19Z"/>
      <path class="cls-1" d="M951.26,105.32v-8.24h-.28c-3.35,7.12-9.5,10.76-19.97,10.76-16.34,0-29.89-9.78-29.89-31.85V27.8h23.19v43.44c0,10.2,3.63,14.95,12.43,14.95s13.27-5.87,13.27-15.36V27.8h23.19v77.52h-21.93Z"/>
      <path class="cls-1" d="M1022.92,49.59c-.14-4.47-3.35-5.87-7.12-5.87s-6.7,2.23-6.7,5.17c0,4.19,3.77,6.29,14.53,9.08,18.44,4.89,24.44,12.29,24.44,23.61,0,16.2-13.97,26.4-31.57,26.4s-29.89-9.92-31.57-25.7h23.05c.7,4.89,4.19,7.12,8.8,7.12,4.05,0,8.1-2.38,8.1-6.01,0-4.33-2.65-6.56-14.25-10.2-19.56-6.01-24.72-13.69-24.72-22.77,0-15.36,14.39-25.28,30.03-25.28,16.76,0,28.63,9.22,29.75,24.44h-22.77Z"/>
      <path class="cls-1" d="M1159.81,96.24c-3.49,7.4-12.15,11.59-21.65,11.59-22.63,0-38.97-17.46-38.97-40.79s16.62-41.76,38.97-41.76c10.06,0,17.74,3.77,21.51,9.78h.28v-7.26h23.19v69.28c0,10.48-1.4,18.44-4.19,23.75-5.59,10.76-20.81,19-40.23,19-21.93,0-36.18-12.43-38.13-27.24h26.82c2.65,5.73,7.82,7.68,13.55,7.68,11.73,0,18.86-7.68,18.86-21.79v-2.24ZM1159.95,66.91c0-11.31-7.68-19.97-19-19.97-10.34,0-18.58,8.66-18.58,19.27s7.4,19.97,18.58,19.97,19-8.1,19-19.28Z"/>
      <path class="cls-1" d="M1257.87,105.32v-8.38h-.28c-3.35,6.84-12.57,11.04-22.77,11.04-22.91,0-38.83-18.02-38.83-41.48s16.62-41.35,38.83-41.35c9.5,0,18.3,3.77,22.77,10.9h.28v-8.24h23.19v77.52h-23.19ZM1257.87,66.49c0-10.9-8.8-19.69-19.69-19.69s-19,8.8-19,19.97,8.52,19.55,19.28,19.55,19.42-8.66,19.42-19.83Z"/>
      <path class="cls-1" d="M1298.8,105.32v-59.92h-8.66v-17.6h8.66v-3.21c0-12.85,5.03-24.58,29.75-24.58h3.21v17.46h-.84c-6.01,0-8.94,1.54-8.94,7.96v2.37h9.78v17.6h-9.78v59.92h-23.19Z"/>
      <path class="cls-1" d="M1399.37,105.32v-8.38h-.28c-3.35,6.84-12.57,11.04-22.77,11.04-22.91,0-38.83-18.02-38.83-41.48s16.62-41.35,38.83-41.35c9.5,0,18.3,3.77,22.77,10.9h.28v-8.24h23.19v77.52h-23.19ZM1399.37,66.49c0-10.9-8.8-19.69-19.69-19.69s-19,8.8-19,19.97,8.52,19.55,19.28,19.55,19.42-8.66,19.42-19.83Z"/>
      <path class="cls-1" d="M1472.43,49.59c-.14-4.47-3.35-5.87-7.12-5.87s-6.71,2.23-6.71,5.17c0,4.19,3.77,6.29,14.53,9.08,18.44,4.89,24.44,12.29,24.44,23.61,0,16.2-13.97,26.4-31.57,26.4s-29.89-9.92-31.57-25.7h23.05c.7,4.89,4.19,7.12,8.8,7.12,4.05,0,8.1-2.38,8.1-6.01,0-4.33-2.65-6.56-14.25-10.2-19.55-6.01-24.72-13.69-24.72-22.77,0-15.36,14.39-25.28,30.03-25.28,16.76,0,28.63,9.22,29.75,24.44h-22.77Z"/>
      <path class="cls-1" d="M1553.17,105.32v-59.92h-8.66v-17.6h8.66v-3.21c0-12.85,5.03-24.58,29.75-24.58h3.21v17.46h-.84c-6.01,0-8.94,1.54-8.94,7.96v2.37h9.78v17.6h-9.78v59.92h-23.19Z"/>
      <path class="cls-1" d="M1653.74,105.32v-8.38h-.28c-3.35,6.84-12.57,11.04-22.77,11.04-22.91,0-38.83-18.02-38.83-41.48s16.62-41.35,38.83-41.35c9.5,0,18.3,3.77,22.77,10.9h.28v-8.24h23.19v77.52h-23.19ZM1653.74,66.49c0-10.9-8.8-19.69-19.7-19.69s-19,8.8-19,19.97,8.52,19.55,19.28,19.55,19.42-8.66,19.42-19.83Z"/>
      <path class="cls-1" d="M1715.62,105.32l-27.8-77.52h24.02l14.81,48.33h.28l14.81-48.33h24.02l-27.94,77.52h-22.21Z"/>
      <path class="cls-1" d="M1811.86,107.69c-23.61,0-41.76-17.46-41.76-41.21s18.58-41.21,41.76-41.21,41.76,17.46,41.76,40.93-18.44,41.49-41.76,41.49ZM1830.44,66.49c0-10.34-7.82-19.56-18.72-19.56-10.2,0-18.44,8.94-18.44,19.56s8.1,19.55,18.58,19.55,18.58-9.22,18.58-19.55Z"/>
      <path class="cls-1" d="M1866.62,105.32V27.8h21.79v8.24h.28c4.05-8.24,10.48-10.9,19.42-10.9v23.33c-13.83.14-18.3,5.31-18.3,14.11v42.74h-23.19Z"/>
      <path class="cls-1" d="M1920.4,19.56V1.96h23.19v17.6h-23.19ZM1920.4,105.32V27.8h23.19v77.52h-23.19Z"/>
      <path class="cls-1" d="M1965.66,105.32v-59.92h-11.45v-17.6h11.45V1.96h23.19v25.84h11.17v17.6h-11.17v59.92h-23.19Z"/>
      <path class="cls-1" d="M2066.23,105.32v-8.38h-.28c-3.35,6.84-12.57,11.04-22.77,11.04-22.91,0-38.83-18.02-38.83-41.48s16.62-41.35,38.83-41.35c9.5,0,18.3,3.77,22.77,10.9h.28v-8.24h23.19v77.52h-23.19ZM2066.23,66.49c0-10.9-8.8-19.69-19.7-19.69s-19,8.8-19,19.97,8.52,19.55,19.28,19.55,19.42-8.66,19.42-19.83Z"/>
      <path class="cls-1" d="M2139.29,49.59c-.14-4.47-3.35-5.87-7.12-5.87s-6.71,2.23-6.71,5.17c0,4.19,3.77,6.29,14.53,9.08,18.44,4.89,24.44,12.29,24.44,23.61,0,16.2-13.97,26.4-31.57,26.4s-29.89-9.92-31.57-25.7h23.05c.7,4.89,4.19,7.12,8.8,7.12,4.05,0,8.1-2.38,8.1-6.01,0-4.33-2.65-6.56-14.25-10.2-19.56-6.01-24.72-13.69-24.72-22.77,0-15.36,14.39-25.28,30.03-25.28,16.76,0,28.63,9.22,29.75,24.44h-22.77Z"/>
    </g>
  </g>
</svg>